<?xml version="1.0" encoding="UTF-8"?>
<svg width="70px" height="72px" viewBox="0 0 70 72" version="1.1" xmlns="http://www.w3.org/2000/svg" xmlns:xlink="http://www.w3.org/1999/xlink">
    <!-- Generator: Sketch 50.2 (55047) - http://www.bohemiancoding.com/sketch -->
    <title>Artboard Copy</title>
    <desc>Created with Sketch.</desc>
    <defs></defs>
    <g id="Artboard-Copy" stroke="none" stroke-width="1" fill="none" fill-rule="evenodd">
        <g id="Lightbulb">
            <rect id="Rectangle-10" x="0" y="0" width="70" height="72"></rect>
            <path d="M48.5200882,37.8600686 C48.5200882,27.4097829 40.0418529,18.93744 29.5830294,18.93744 C19.1231765,18.93744 10.6449412,27.4097829 10.6449412,37.8600686 C10.6449412,48.3103543 19.1231765,56.7816686 29.5830294,56.7816686 C40.0418529,56.7816686 48.5200882,48.3103543 48.5200882,37.8600686" id="Fill-1" fill="#E3EDF7" fill-rule="nonzero"></path>
            <polygon id="Stroke-3" stroke="#0067CC" stroke-width="2" stroke-linecap="round" stroke-linejoin="round" points="24.8705882 66.10464 43.1488235 66.10464 43.1488235 57.63024 24.8705882 57.63024"></polygon>
            <path d="M24.8707941,57.6300343 L43.1490294,57.6300343" id="Stroke-5" stroke="#0067CC" stroke-width="2" stroke-linecap="round" stroke-linejoin="round"></path>
            <path d="M24.8707941,61.8908914 L43.1490294,61.8908914" id="Stroke-6" stroke="#0067CC" stroke-width="2" stroke-linecap="round" stroke-linejoin="round"></path>
            <path d="M34.0098088,17.1570857 C22.9755441,17.1570857 14.0320147,26.0933143 14.0320147,37.1175429 C14.0320147,44.8493143 18.4378971,51.5391429 24.8706912,54.8542286 L24.8706912,66.1047429 L43.1489265,66.1047429 L43.1489265,54.8542286 C49.5817206,51.5391429 53.9876029,44.8493143 53.9876029,37.1175429 C53.9876029,26.0933143 45.0430441,17.1570857 34.0098088,17.1570857 Z" id="Stroke-7" stroke="#0067CC" stroke-width="2" stroke-linecap="round" stroke-linejoin="round"></path>
            <polygon id="Stroke-8" stroke="#0067CC" stroke-width="2" stroke-linecap="round" stroke-linejoin="round" points="28.6341176 70.3289829 39.3863235 70.3289829 39.3863235 66.10464 28.6341176 66.10464"></polygon>
            <path d="M34.8411618,23.7594857 C26.8879265,23.7594857 20.4427794,30.2004 20.4427794,38.1450857" id="Stroke-9" stroke="#0067CC" stroke-width="2" stroke-linecap="round" stroke-linejoin="round"></path>
            <path d="M49.7535294,13.12416 L53.7476471,6.29341714" id="Stroke-11" stroke="#0067CC" stroke-width="2" stroke-linecap="round" stroke-linejoin="round"></path>
            <path d="M68.0799412,20.8837029 L61.2106765,24.7531886" id="Stroke-12" stroke="#0067CC" stroke-width="2" stroke-linecap="round" stroke-linejoin="round"></path>
            <path d="M1.02941176,18.7180457 L7.71441176,23.0514171" id="Stroke-14" stroke="#0067CC" stroke-width="2" stroke-linecap="round" stroke-linejoin="round"></path>
            <path d="M19.8623971,12.0534171 L16.3891618,5.16301714" id="Stroke-15" stroke="#0067CC" stroke-width="2" stroke-linecap="round" stroke-linejoin="round"></path>
            <path d="M19.9347647,12.1970057 L19.8627059,12.0530057" id="Stroke-16" stroke="#0067CC" stroke-width="2" stroke-linecap="round" stroke-linejoin="round"></path>
            <path d="M33.9897353,8.86021714 L33.9897353,1.02867429" id="Stroke-10" stroke="#0067CC" stroke-width="2" stroke-linecap="round" stroke-linejoin="round"></path>
        </g>
    </g>
</svg>