<?xml version="1.0" encoding="UTF-8"?>
<svg width="24px" height="24px" viewBox="0 0 24 24" version="1.1" xmlns="http://www.w3.org/2000/svg" xmlns:xlink="http://www.w3.org/1999/xlink">
    <!-- Generator: Sketch 49.3 (51167) - http://www.bohemiancoding.com/sketch -->
    <title>Hamburger icon</title>
    <desc>Created with Sketch.</desc>
    <defs></defs>
    <g id="Hamburger-icon" stroke="none" stroke-width="1" fill="none" fill-rule="evenodd">
        <rect id="Rectangle-4" x="0" y="0" width="24" height="24"></rect>
        <g id="Group-2" transform="translate(2.000000, 5.000000)" fill="#333333">
            <g id="Group" transform="translate(1.000000, 0.000000)">
                <rect id="Rectangle-6" x="0" y="0" width="18" height="1"></rect>
                <rect id="Rectangle-6-Copy" x="0" y="7" width="18" height="1"></rect>
                <rect id="Rectangle-6-Copy-2" x="0" y="14" width="18" height="1"></rect>
            </g>
            <path d="M0.5,0 L1,0 L1,1 L0.5,1 C0.223857625,1 3.38176876e-17,0.776142375 0,0.5 L0,0.5 C-3.38176876e-17,0.223857625 0.223857625,5.07265313e-17 0.5,0 Z" id="Rectangle-2"></path>
            <path d="M19.5,0 L20,0 L20,1 L19.5,1 C19.2238576,1 19,0.776142375 19,0.5 L19,0.5 C19,0.223857625 19.2238576,5.07265313e-17 19.5,0 Z" id="Rectangle-2-Copy-3" transform="translate(19.500000, 0.500000) scale(-1, 1) translate(-19.500000, -0.500000) "></path>
            <path d="M0.5,7 L1,7 L1,8 L0.5,8 C0.223857625,8 3.38176876e-17,7.77614237 0,7.5 L0,7.5 C-3.38176876e-17,7.22385763 0.223857625,7 0.5,7 Z" id="Rectangle-2-Copy"></path>
            <path d="M19.5,7 L20,7 L20,8 L19.5,8 C19.2238576,8 19,7.77614237 19,7.5 L19,7.5 C19,7.22385763 19.2238576,7 19.5,7 Z" id="Rectangle-2-Copy-4" transform="translate(19.500000, 7.500000) scale(-1, 1) translate(-19.500000, -7.500000) "></path>
            <path d="M0.5,14 L1,14 L1,15 L0.5,15 C0.223857625,15 3.38176876e-17,14.7761424 0,14.5 L0,14.5 C-3.38176876e-17,14.2238576 0.223857625,14 0.5,14 Z" id="Rectangle-2-Copy-2"></path>
            <path d="M19.5,14 L20,14 L20,15 L19.5,15 C19.2238576,15 19,14.7761424 19,14.5 L19,14.5 C19,14.2238576 19.2238576,14 19.5,14 Z" id="Rectangle-2-Copy-5" transform="translate(19.500000, 14.500000) scale(-1, 1) translate(-19.500000, -14.500000) "></path>
        </g>
    </g>
</svg>