<?xml version="1.0" encoding="UTF-8"?>
<svg width="10px" height="20px" viewBox="0 0 10 20" version="1.1" xmlns="http://www.w3.org/2000/svg" xmlns:xlink="http://www.w3.org/1999/xlink">
    <!-- Generator: Sketch 49.3 (51167) - http://www.bohemiancoding.com/sketch -->
    <title>facebook-logo copy</title>
    <desc>Created with Sketch.</desc>
    <defs></defs>
    <g id="Article-page-exploration" stroke="none" stroke-width="1" fill="none" fill-rule="evenodd">
        <g id="Article-page---scroll-interaction" transform="translate(-1046.000000, -501.000000)">
            <g id="facebook-logo-copy" transform="translate(1032.000000, 497.000000)">
                <rect id="Rectangle-7-Copy" x="0" y="0" width="24" height="24"></rect>
                <path d="M20.2216985,10.5464968 L20.2216985,8.82501062 C20.2216985,8.56658174 20.2335881,8.36641189 20.2577495,8.22501062 C20.2818259,8.08339703 20.336603,7.9441189 20.4216136,7.8066242 C20.5064968,7.66921444 20.643949,7.57435244 20.833758,7.52178344 C21.0238217,7.46912951 21.2763907,7.44288747 21.5917197,7.44288747 L23.313121,7.44288747 L23.313121,4 L20.5611465,4 C18.9687898,4 17.825138,4.37779193 17.1300212,5.1333758 C16.4349894,5.88912951 16.0875159,7.00233546 16.0875159,8.47341826 L16.0875159,10.5464544 L14.0262845,10.5464544 L14.0262845,13.9895966 L16.0873885,13.9895966 L16.0873885,23.9792357 L20.2216561,23.9792357 L20.2216561,13.9896391 L22.9734607,13.9896391 L23.3371975,10.5464968 L20.2216985,10.5464968 Z" id="Shape" fill="#0467C6" fill-rule="nonzero"></path>
            </g>
        </g>
    </g>
</svg>