<?xml version="1.0" encoding="UTF-8"?>
<svg width="21px" height="20px" viewBox="0 0 21 20" version="1.1" xmlns="http://www.w3.org/2000/svg" xmlns:xlink="http://www.w3.org/1999/xlink">
    <!-- Generator: Sketch 49.3 (51167) - http://www.bohemiancoding.com/sketch -->
    <title>linkedin-logo copy</title>
    <desc>Created with Sketch.</desc>
    <defs></defs>
    <g id="Article-page-exploration" stroke="none" stroke-width="1" fill="none" fill-rule="evenodd">
        <g id="Article-page---scroll-interaction" transform="translate(-1002.000000, -504.000000)">
            <g id="linkedin-logo-copy" transform="translate(999.000000, 500.000000)">
                <rect id="Rectangle-7-Copy-3" x="0" y="0" width="24" height="24"></rect>
                <path d="M23.5532244,16.2322816 L23.5532244,23.9515534 L19.1480029,23.9515534 L19.1480029,16.7492718 C19.1480029,14.94 18.5108351,13.7052427 16.916291,13.7052427 C15.6990587,13.7052427 14.9746829,14.5373786 14.6560035,15.3423301 C14.5397899,15.6300971 14.5098764,16.0306311 14.5098764,16.4334466 L14.5098764,23.9515534 L10.1031735,23.9515534 C10.1031735,23.9515534 10.1625228,11.7532524 10.1031735,10.4894175 L14.5094463,10.4894175 L14.5094463,12.3976214 C14.5005105,12.4118932 14.4888987,12.4272816 14.4804885,12.4411165 L14.5094463,12.4411165 L14.5094463,12.3976214 C15.0948627,11.4816505 16.140355,10.1731553 18.4804915,10.1731553 C21.3797626,10.1731068 23.5532244,12.097233 23.5532244,16.2322816 Z M5.49357479,4 C3.98604748,4 3,5.00451456 3,6.32548544 C3,7.6176699 3.95751972,8.6526699 5.43508571,8.6526699 L5.46452139,8.6526699 C7.00124545,8.6526699 7.95694933,7.61786408 7.95694933,6.32548544 C7.9279915,5.00451456 7.00124545,4 5.49357479,4 Z M3.26171951,23.9515534 L7.66674985,23.9515534 L7.66674985,10.4894175 L3.26171951,10.4894175 L3.26171951,23.9515534 Z" id="LinkedIn" fill="#0467C6" fill-rule="nonzero"></path>
            </g>
        </g>
    </g>
</svg>