<?xml version="1.0" encoding="UTF-8"?>
<svg width="96px" height="65px" viewBox="0 0 96 65" version="1.1" xmlns="http://www.w3.org/2000/svg" xmlns:xlink="http://www.w3.org/1999/xlink">
    <!-- Generator: Sketch 54.1 (76490) - https://sketchapp.com -->
    <title>Quotation</title>
    <desc>Created with Sketch.</desc>
    <g id="Article-page-template-and-components" stroke="none" stroke-width="1" fill="none" fill-rule="evenodd">
        <g id="Quotation" transform="translate(0.000000, -1.000000)" fill="#E5EFF9">
            <path d="M24.3912,20.7412 L24.6812,20.7412 C21.9002,20.7412 22.0232,19.2022 22.2032,17.9482 C22.3682,16.7942 22.5602,15.7672 22.7812,14.8222 C24.7302,8.6632 31.0212,4.7792 34.4852,3.0542 C35.4792,2.6052 36.5372,2.1372 37.6972,1.6252 C37.8422,1.5602 37.9362,1.4172 37.9512,1.2602 C37.9222,1.0892 37.7572,0.9662 37.5832,1.0082 C3.1712,9.4292 0.1092,33.0162 0.0092,40.3482 L0.0092,40.3482 C0.0092,40.3482 -0.0098,41.6872 0.0062,42.5542 C0.0062,55.5192 11.0682,66.6632 24.2082,65.8452 C35.3492,65.1512 44.4652,56.1642 45.3022,45.0332 C46.2592,32.3142 36.6832,21.6172 24.3912,20.7412" id="Fill-3"></path>
            <path d="M74.9215,20.7412 L75.2125,20.7412 C72.4315,20.7412 72.5545,19.2022 72.7335,17.9482 C72.8995,16.7942 73.0915,15.7672 73.3125,14.8222 C75.2605,8.6632 81.5525,4.7792 85.0165,3.0542 C86.0105,2.6052 87.0675,2.1372 88.2275,1.6252 C88.3735,1.5602 88.4675,1.4172 88.4825,1.2602 C88.4535,1.0892 88.2885,0.9662 88.1135,1.0082 C53.7025,9.4292 50.6405,33.0162 50.5405,40.3482 L50.5405,40.3482 C50.5405,40.3482 50.5215,41.6872 50.5375,42.5542 C50.5375,55.5192 61.5995,66.6632 74.7395,65.8452 C85.8805,65.1512 94.9965,56.1642 95.8335,45.0332 C96.7905,32.3142 87.2145,21.6172 74.9215,20.7412" id="Fill-8"></path>
        </g>
    </g>
</svg>