<?xml version="1.0" encoding="UTF-8"?>
<svg width="21px" height="17px" viewBox="0 0 21 17" version="1.1" xmlns="http://www.w3.org/2000/svg" xmlns:xlink="http://www.w3.org/1999/xlink">
    <!-- Generator: Sketch 49.3 (51167) - http://www.bohemiancoding.com/sketch -->
    <title>twitter-logo-silhouette</title>
    <desc>Created with Sketch.</desc>
    <defs></defs>
    <g id="Final-versions" stroke="none" stroke-width="1" fill="none" fill-rule="evenodd">
        <g id="CH_button_styles" transform="translate(-276.000000, -1195.000000)">
            <g id="twitter-logo-silhouette" transform="translate(273.000000, 1188.000000)">
                <rect id="Rectangle-7-Copy-2" x="0" y="0" width="24" height="24"></rect>
                <path d="M23.9247802,9.02286345 C23.154632,9.36358032 22.3282742,9.5946506 21.4600326,9.69781124 C22.3465663,9.16777309 23.0251856,8.32705823 23.3468186,7.32835944 C22.5152296,7.81920884 21.5973087,8.17562851 20.6192462,8.36884137 C19.8360371,7.53464659 18.7219977,7.01505422 17.4863416,7.01505422 C15.1157555,7.01505422 13.1936503,8.93410843 13.1936503,11.2996345 C13.1936503,11.6351285 13.2315679,11.9628052 13.3048046,12.2761446 C9.73781342,12.0972691 6.5748551,10.3910221 4.45793064,7.79831727 C4.08788343,8.43018474 3.87737056,9.16644177 3.87737056,9.95236747 C3.87737056,11.4393213 4.63575708,12.7513253 5.78641485,13.5189197 C5.08293878,13.4954337 4.42131228,13.3022209 3.84208564,12.9810643 L3.84208564,13.0345904 C3.84208564,15.1102972 5.32224031,16.8426586 7.28486161,17.2369357 C6.92527678,17.3335422 6.54610062,17.3870683 6.15382937,17.3870683 C5.87664442,17.3870683 5.60858841,17.3596566 5.34576359,17.3074277 C5.89230381,19.0110803 7.47708238,20.2499639 9.3547395,20.2839297 C7.88634647,21.432761 6.03484533,22.1155261 4.02384402,22.1155261 C3.67735428,22.1155261 3.33606154,22.0946345 3.00003419,22.0567771 C4.89991534,23.2748032 7.15544937,23.9849799 9.57964669,23.9849799 C17.4759476,23.9849799 21.7921964,17.4549659 21.7921964,11.7918153 L21.777802,11.236994 C22.6211527,10.6364297 23.3507506,9.8818755 23.9247802,9.02286345 Z" id="Shape" fill="#666666" fill-rule="nonzero"></path>
            </g>
        </g>
    </g>
</svg>