<?xml version="1.0" encoding="UTF-8"?>
<svg xmlns="http://www.w3.org/2000/svg" xmlns:xlink="http://www.w3.org/1999/xlink" width="24" height="15"
     viewBox="0 0 24 15">
  <svg width="24" height="15" viewBox="0 0 24 15" id="email-hover" y="0">
    <title>email-hover</title>
    <g fill="#2968B2" fill-rule="evenodd">
      <path d="M.64 2l10.15 7.31a1.37 1.37 0 0 0 1.57 0L22.51 2a1.54 1.54 0 0 0 .64-1.22V0H0v.8c.013.478.25.923.64 1.2zM.13 2.91A1.42 1.42 0 0 0 0 2.79v11.09l6.73-6.26-6.6-4.71zM23 2.89l-6.6 4.73 6.73 6.26V2.77z"/>
      <path d="M15.59 8.22l-2.66 1.9a2.31 2.31 0 0 1-2.71 0l-2.66-1.9-6.82 6.34h21.67l-6.82-6.34z"/>
    </g>
  </svg>
</svg>