<?xml version="1.0" encoding="UTF-8"?>
<svg xmlns="http://www.w3.org/2000/svg" xmlns:xlink="http://www.w3.org/1999/xlink" width="21" height="20" viewBox="0 0 21 20">
   <svg width="21" height="20" viewBox="0 0 21 20" id="linkedin-hover" y="0">
      <title>linkedin-logo copy</title>
      <g transform="translate(-3 -4)" fill="none" fill-rule="evenodd">
         <path d="M0 0h24v24H0z" />
         <path d="M23.553 16.232v7.72h-4.405v-7.203c0-1.809-.637-3.044-2.232-3.044-1.217 0-1.941.832-2.26 1.637-.116.288-.146.689-.146 1.091v7.519h-4.407s.06-12.199 0-13.463h4.406v1.909c-.008.014-.02.03-.029.043h.03v-.043c.585-.916 1.63-2.225 3.97-2.225 2.9 0 5.073 1.924 5.073 6.06zM5.493 4C3.987 4 3 5.005 3 6.325c0 1.293.958 2.328 2.435 2.328h.03c1.536 0 2.492-1.035 2.492-2.328C7.928 5.005 7 4 5.494 4zM3.263 23.952h4.405V10.489H3.262v13.463z" fill="#0467C6" fill-rule="nonzero" />
      </g>
   </svg>
</svg>