<?xml version="1.0" encoding="UTF-8"?>
<svg width="96px" height="65px" viewBox="0 0 96 65" version="1.1" xmlns="http://www.w3.org/2000/svg" xmlns:xlink="http://www.w3.org/1999/xlink">
    <!-- Generator: Sketch 50.2 (55047) - http://www.bohemiancoding.com/sketch -->
    <title>Quotation</title>
    <desc>Created with Sketch.</desc>
    <defs>
        <polygon id="path-1" points="0 0.113 45.3681649 0.113 45.3681649 65 0 65"></polygon>
        <polygon id="path-3" points="0.531091221 0.113 45.8994648 0.113 45.8994648 65 0.531091221 65"></polygon>
    </defs>
    <g id="Article-page-exploration" stroke="none" stroke-width="1" fill="none" fill-rule="evenodd">
        <g id="1a_article_block_quote_photo_desktop" transform="translate(-364.000000, -914.000000)">
            <g id="Group-2" transform="translate(364.000000, 913.000000)">
                <g id="Quotation">
                    <path d="M37.9615,1.2236 C37.9615,1.2366 37.9515,1.2466 37.9505,1.2596 C37.9535,1.2756 37.9615,1.2886 37.9615,1.3056 L37.9615,1.2236 Z" id="Fill-1" fill="#E5EFF9"></path>
                    <g id="Group-5" transform="translate(0.000000, 0.887000)">
                        <mask id="mask-2" fill="white">
                            <use xlink:href="#path-1"></use>
                        </mask>
                        <g id="Clip-4"></g>
                        <path d="M24.3912,19.8542 L24.6812,19.8542 C21.9002,19.8542 22.0232,18.3152 22.2032,17.0612 C22.3682,15.9072 22.5602,14.8802 22.7812,13.9352 C24.7302,7.7762 31.0212,3.8922 34.4852,2.1672 C35.4792,1.7182 36.5372,1.2502 37.6972,0.7382 C37.8422,0.6732 37.9362,0.5302 37.9512,0.3732 C37.9222,0.2022 37.7572,0.0792 37.5832,0.1212 C3.1712,8.5422 0.1092,32.1292 0.0092,39.4612 C0.0092,39.4612 -0.0098,40.8002 0.0062,41.6672 C0.0062,54.6322 11.0682,65.7762 24.2082,64.9582 C35.3492,64.2642 44.4652,55.2772 45.3022,44.1462 C46.2592,31.4272 36.6832,20.7302 24.3912,19.8542" id="Fill-3" fill="#E5EFF9" mask="url(#mask-2)"></path>
                    </g>
                    <path d="M88.4928,1.2236 C88.4928,1.2366 88.4828,1.2466 88.4818,1.2596 C88.4838,1.2756 88.4928,1.2886 88.4928,1.3056 L88.4928,1.2236 Z" id="Fill-6" fill="#E5EFF9"></path>
                    <g id="Group-10" transform="translate(50.000000, 0.887000)">
                        <mask id="mask-4" fill="white">
                            <use xlink:href="#path-3"></use>
                        </mask>
                        <g id="Clip-9"></g>
                        <path d="M24.9215,19.8542 L25.2125,19.8542 C22.4315,19.8542 22.5545,18.3152 22.7335,17.0612 C22.8995,15.9072 23.0915,14.8802 23.3125,13.9352 C25.2605,7.7762 31.5525,3.8922 35.0165,2.1672 C36.0105,1.7182 37.0675,1.2502 38.2275,0.7382 C38.3735,0.6732 38.4675,0.5302 38.4825,0.3732 C38.4535,0.2022 38.2885,0.0792 38.1135,0.1212 C3.7025,8.5422 0.6405,32.1292 0.5405,39.4612 C0.5405,39.4612 0.5215,40.8002 0.5375,41.6672 C0.5375,54.6322 11.5995,65.7762 24.7395,64.9582 C35.8805,64.2642 44.9965,55.2772 45.8335,44.1462 C46.7905,31.4272 37.2145,20.7302 24.9215,19.8542" id="Fill-8" fill="#E5EFF9" mask="url(#mask-4)"></path>
                    </g>
                </g>
            </g>
        </g>
    </g>
</svg>