<?xml version="1.0" encoding="UTF-8"?>
<svg xmlns="http://www.w3.org/2000/svg" xmlns:xlink="http://www.w3.org/1999/xlink" width="21" height="17" viewBox="0 0 21 17">
   <svg width="21" height="17" viewBox="0 0 21 17" id="twitter" y="0">
      <title>twitter-logo-silhouette</title>
      <g transform="translate(-3 -7)" fill="none" fill-rule="evenodd">
         <path d="M0 0h24v24H0z" />
         <path d="M23.925 9.023c-.77.34-1.597.572-2.465.675a4.305 4.305 0 0 0 1.887-2.37c-.832.491-1.75.848-2.728 1.04a4.284 4.284 0 0 0-3.133-1.353 4.29 4.29 0 0 0-4.181 5.261 12.193 12.193 0 0 1-8.847-4.478 4.248 4.248 0 0 0-.58 2.154c0 1.487.758 2.8 1.908 3.567a4.298 4.298 0 0 1-1.944-.538v.054a4.292 4.292 0 0 0 3.443 4.202c-.36.097-.739.15-1.131.15-.277 0-.545-.027-.808-.08a4.294 4.294 0 0 0 4.009 2.977 8.621 8.621 0 0 1-5.331 1.832c-.347 0-.688-.021-1.024-.06a12.147 12.147 0 0 0 6.58 1.929c7.896 0 12.212-6.53 12.212-12.193l-.014-.555a8.564 8.564 0 0 0 2.147-2.214z" fill="#666" fill-rule="nonzero" />
      </g>
   </svg>
</svg>