<svg id="Layer_1" data-name="Layer 1" xmlns="http://www.w3.org/2000/svg" viewBox="0 0 290 150"><defs><style>.cls-1,.cls-12,.cls-9{fill:none;}.cls-1,.cls-3,.cls-4,.cls-5{stroke:#d9d9d9;}.cls-1,.cls-10,.cls-12,.cls-13,.cls-17,.cls-2,.cls-3,.cls-4,.cls-5,.cls-6,.cls-7,.cls-8,.cls-9{stroke-linecap:round;stroke-linejoin:round;}.cls-1,.cls-10,.cls-17,.cls-2,.cls-3,.cls-4,.cls-5,.cls-6,.cls-7,.cls-8,.cls-9{stroke-width:2px;}.cls-14,.cls-2{fill:#e5eff9;}.cls-10,.cls-12,.cls-13,.cls-17,.cls-2,.cls-6,.cls-7,.cls-8,.cls-9{stroke:#0467c6;}.cls-3{fill:#f3f3f3;}.cls-4{fill:#e5e5e5;}.cls-5{fill:#f0f0f0;}.cls-16,.cls-6{fill:#fff;}.cls-13,.cls-7{fill:#dae9f3;}.cls-11,.cls-8{fill:#b3d1ed;}.cls-10{fill:#3685d1;}.cls-12,.cls-13{stroke-width:1.77px;}.cls-15{fill:#0467c6;}.cls-17{fill:#6bb966;}</style></defs><title>Illustrations_20170720</title><circle class="cls-1" cx="249.22" cy="140.88" r="6.89"/><circle class="cls-1" cx="273.01" cy="140.88" r="6.89"/><path class="cls-1" d="M249.33,140.63l5.89-14.72s-5-1.46-4.9,2.5"/><polyline class="cls-1" points="254 129 268.11 129.44 262.3 140.08 253.29 131.08"/><polyline class="cls-1" points="262.3 140.08 273.51 141.1 268.11 129.44 269.24 126 271 126"/><rect class="cls-2" x="103" y="-1" width="32" height="54" transform="translate(93 145) rotate(-90)"/><polyline class="cls-3" points="218 97 218 148 134 148 134 79 218 79 218 98"/><rect class="cls-4" x="131" y="79" width="90" height="4" transform="translate(352 162) rotate(180)"/><rect class="cls-5" x="189" y="106" width="29" height="42" transform="translate(407 254) rotate(180)"/><polygon class="cls-4" points="194.78 147.84 212.22 147.8 212.14 114.11 203.44 114.13 194.7 114.16 194.78 147.84"/><rect class="cls-4" x="131" y="104" width="90" height="4" transform="translate(352 212) rotate(180)"/><rect class="cls-5" x="50" y="126" width="20" height="22"/><rect class="cls-5" x="42" y="135" width="13" height="13"/><rect class="cls-5" x="11" y="135" width="13" height="13"/><path class="cls-1" d="M240,137h2.11a3.94,3.94,0,0,1,3.94,3.94V148a0,0,0,0,1,0,0H236a0,0,0,0,1,0,0v-7A4,4,0,0,1,240,137Z"/><path class="cls-1" d="M226,137h2a4,4,0,0,1,4,4v7a0,0,0,0,1,0,0H222a0,0,0,0,1,0,0v-7A4,4,0,0,1,226,137Z"/><line class="cls-6" x1="31" y1="148" x2="288" y2="148"/><line class="cls-6" x1="179" y1="148" x2="202" y2="148"/><line class="cls-6" x1="27" y1="148" x2="2" y2="148"/><line class="cls-7" x1="138" y1="43" x2="138" y2="52"/><line class="cls-7" x1="99" y1="43" x2="99" y2="52"/><rect class="cls-8" x="102" y="129" width="72" height="19"/><rect class="cls-2" x="62" y="91" width="40" height="53"/><polyline class="cls-2" points="62 62 62 54 174 54 174 77 62 77 62 67"/><rect class="cls-6" x="102" y="91" width="72" height="38"/><polyline class="cls-9" points="62 67 62 148 174 148 174 54 62 54 62 62"/><line class="cls-9" x1="102" y1="91" x2="102" y2="148"/><rect class="cls-10" x="59" y="50" width="118" height="4"/><rect class="cls-11" x="155" y="63" width="6" height="3" rx="0.6" ry="0.6"/><rect class="cls-11" x="79" y="61" width="6" height="3" rx="0.6" ry="0.6"/><rect class="cls-11" x="126" y="59" width="6" height="3" rx="0.6" ry="0.6"/><rect class="cls-11" x="74" y="64" width="6" height="3" rx="0.6" ry="0.6"/><polygon class="cls-8" points="93.14 147.84 70.2 147.77 70.31 106.05 81.76 106.08 93.26 106.11 93.14 147.84"/><polygon class="cls-12" points="93.14 147.84 70.2 147.77 70.31 106.05 81.76 106.08 93.26 106.11 93.14 147.84"/><line class="cls-13" x1="89.93" y1="124.88" x2="89.92" y2="129.05"/><line class="cls-9" x1="94" y1="144" x2="102" y2="144"/><rect class="cls-8" x="106" y="133" width="18" height="11"/><rect class="cls-9" x="128" y="133" width="18" height="11"/><rect class="cls-9" x="150" y="133" width="19" height="11"/><path class="cls-14" d="M152.7,117h15a1.34,1.34,0,0,1,1.34,1.34V128a0,0,0,0,1,0,0H151a0,0,0,0,1,0,0v-9.3A1.7,1.7,0,0,1,152.7,117Z"/><path class="cls-14" d="M127.62,113h9.73a.65.65,0,0,1,.65.65V121a0,0,0,0,1,0,0H126a0,0,0,0,1,0,0v-6.38A1.62,1.62,0,0,1,127.62,113Z"/><path class="cls-14" d="M111.65,116h10a1.3,1.3,0,0,1,1.3,1.3V123a0,0,0,0,1,0,0H111a0,0,0,0,1,0,0v-6.35A.65.65,0,0,1,111.65,116Z"/><path class="cls-14" d="M108.87,121H143.6a2.4,2.4,0,0,1,2.4,2.4V128a0,0,0,0,1,0,0H107a0,0,0,0,1,0,0v-5.13A1.87,1.87,0,0,1,108.87,121Z"/><rect class="cls-8" x="102" y="94" width="72" height="12"/><line class="cls-8" x1="137.2" y1="116" x2="137.2" y2="106"/><circle class="cls-15" cx="137.2" cy="116.2" r="2.09"/><rect class="cls-16" x="63" y="98" width="2" height="49"/><rect class="cls-10" x="57" y="73" width="121" height="18"/><path class="cls-10" d="M178,94.47V89H57v5.46s.35,4.62,8.63,4.62S73.88,95,73.88,95h.7s0,4.35,8.27,4.35S91.26,95,91.26,95H92s0,4.35,8.27,4.35S108.65,95,108.65,95h.7s0,4.35,8.27,4.35S126,95,126,95h.7s0,4.35,8.27,4.35S143.42,95,143.42,95h.7s0,4.35,8.27,4.35S160.8,95,160.8,95h.7s.17,4.08,8.44,4.08S178,94.45,178,94.45Z"/><rect class="cls-16" x="59.61" y="51.03" width="1.83" height="1.83"/><rect class="cls-16" x="58" y="74" width="2" height="14"/><rect class="cls-16" x="93" y="11" width="2" height="30"/><rect class="cls-16" x="62" y="55" width="3" height="17"/><path class="cls-16" d="M64.18,98.08C59.49,97.8,58,95.4,58,94.84V90h2v4.78C60,96.16,64.18,98.08,64.18,98.08Z"/><line class="cls-9" x1="63" y1="144" x2="70" y2="144"/><polyline class="cls-9" points="62 62 62 54 174 54 174 73 62 73 62 67"/><polygon class="cls-17" points="42.63 134.34 40.26 121.04 37.12 103.37 34.46 119 32.46 130.77 30.55 142 44 142 42.63 134.34"/><polyline class="cls-6" points="38 148 38 138.06 38 140"/><polygon class="cls-16" points="37.2 118.98 38.52 111.21 37.12 103.33 34.46 118.98 32.46 130.76 30.55 142 33.3 142 35.2 130.76 37.2 118.98"/><polygon class="cls-9" points="42.63 134.34 40.26 121.04 37.12 103.37 34.46 119 32.46 130.77 30.55 142 44 142 42.63 134.34"/><polygon class="cls-17" points="199.06 134.34 196.69 121.04 193.54 103.37 190.88 119 188.88 130.77 186.97 142 200.42 142 199.06 134.34"/><polyline class="cls-6" points="194 148 194 138.06 194 138"/><polygon class="cls-16" points="193.63 118.98 194.94 111.21 193.54 103.33 190.88 118.98 188.88 130.76 186.97 142 189.72 142 191.63 130.76 193.63 118.98"/><polygon class="cls-9" points="199.06 134.34 196.69 121.04 193.54 103.37 190.88 119 188.88 130.77 186.97 142 200.42 142 199.06 134.34"/><polyline class="cls-8" points="112.44 28.66 114.56 34.61 123.22 34.61 125.33 28.66"/><path class="cls-6" d="M111.7,24.86A1.71,1.71,0,0,0,110,26.62c0,1.95,2.55,2.14,7.63,2,6.84-.13,10.16.28,9.87-2.33-.19-1.67-2.3-1.74-2.3-1.74a3.36,3.36,0,0,0,.46-2.5,2.5,2.5,0,0,0-3-1.87,4.22,4.22,0,0,0-5.17-3c-4.32.73-3.62,3.86-3.62,3.86a2.46,2.46,0,0,0-2.42,1.14A2.91,2.91,0,0,0,111.7,24.86Z"/><line class="cls-1" x1="269" y1="126" x2="267" y2="126"/></svg>