<?xml version="1.0" encoding="UTF-8"?>
<svg width="132px" height="32px" viewBox="0 0 132 32" version="1.1" xmlns="http://www.w3.org/2000/svg" xmlns:xlink="http://www.w3.org/1999/xlink">
    <!-- Generator: Sketch 3.8.1 (29687) - http://www.bohemiancoding.com/sketch -->
    <title>logo-desktop-en</title>
    <desc>Created with Sketch.</desc>
    <defs></defs>
    <g id="Page-1" stroke="none" stroke-width="1" fill="none" fill-rule="evenodd">
        <g id="logo-desktop-en">
            <g id="Level-1-+-2">
                <g id="Home-&gt;-Business">
                    <g id="CP_4C_E">
                        <polygon id="Fill-1" fill="#004A8E" points="0.174203298 31.570621 131.576577 31.570621 131.576577 0.0175645161 0.174203298 0.0175645161"></polygon>
                        <path d="M53.1182426,15.8515766 C53.1182426,15.7006815 53.1194223,15.5517823 53.1233548,15.4020847 L0.174203298,15.4020847 L0.174203298,16.1892944 L53.1233548,16.1892944 C53.1182426,16.0779194 53.1182426,15.961754 53.1182426,15.8515766" id="Fill-2" fill="#FFFFFF"></path>
                        <path d="M78.5979327,15.4020847 C78.603438,15.5517823 78.60855,15.7006815 78.60855,15.8515766 C78.60855,15.961754 78.603438,16.0779194 78.5979327,16.1892944 L131.576577,16.1892944 L131.576577,15.4020847 L78.5979327,15.4020847" id="Fill-3" fill="#FFFFFF"></path>
                        <path d="M78.60855,15.8328145 C78.60855,22.9771815 72.9066362,28.7682823 65.8590707,28.7682823 C58.8221226,28.7682823 53.1182426,22.9771815 53.1182426,15.8328145 C53.1182426,8.68206048 58.8221226,2.89215726 65.8590707,2.89215726 C72.9066362,2.89215726 78.60855,8.68206048 78.60855,15.8328145" id="Fill-4" fill="#D3200C"></path>
                        <polyline id="Fill-5" fill="#FFFFFF" points="61.8229023 17.5178105 62.7265573 16.6008629 72.82445 16.1393952 73.2762775 15.6819194 63.327421 15.6819194 57.9015585 9.24971371 75.9880291 15.3745403 69.9620893 21.4997661 57.9015585 21.4997661 59.109971 20.2710484 69.2047178 19.8147702 69.6518265 19.3533024 60.0104801 19.3533024 60.9168878 18.4323629 71.0143874 17.9748871 71.4666081 17.5178105 61.8229023 17.5178105"></polyline>
                        <path d="M83.4756251,5.73880645 L84.8491964,5.73880645 C86.029296,5.73880645 87.1055813,6.08730242 87.1055813,7.40264516 C87.1055813,8.68565323 86.1799052,9.14831855 85.0233997,9.14831855 L84.5625278,9.14831855 L84.5625278,11.2349032 L83.4756251,11.2349032 L83.4756251,5.73880645 L83.4756251,5.73880645 Z M84.5625278,8.28286694 L84.9404271,8.28286694 C85.4834852,8.28286694 85.9734565,8.10442742 85.9734565,7.46691532 C85.9734565,6.82660887 85.4972484,6.60705242 84.9404271,6.60705242 L84.5625278,6.60705242 L84.5625278,8.28286694 L84.5625278,8.28286694 L84.5625278,8.28286694 Z" id="Fill-6" fill="#FFFFFF"></path>
                        <path d="M92.2129232,5.64579435 C93.9124868,5.64579435 94.8625436,6.80864516 94.8625436,8.4708871 C94.8625436,10.1315323 93.9286094,11.3291129 92.2129232,11.3291129 C90.4701038,11.3291129 89.557011,10.1562823 89.557011,8.4708871 C89.557011,6.7874879 90.4842603,5.64579435 92.2129232,5.64579435 L92.2129232,5.64579435 Z M92.2129232,10.4648589 C93.3159486,10.4648589 93.7304187,9.46288306 93.7304187,8.4708871 C93.7304187,7.50483871 93.2888154,6.51284274 92.2129232,6.51284274 C91.1346716,6.51284274 90.6899223,7.50483871 90.6899223,8.4708871 C90.6899223,9.46288306 91.0992804,10.4648589 92.2129232,10.4648589 L92.2129232,10.4648589 L92.2129232,10.4648589 Z" id="Fill-7" fill="#FFFFFF"></path>
                        <path d="M100.706809,6.74836694 C100.366267,6.59946774 99.980896,6.51284274 99.6006374,6.51284274 C99.2321758,6.51284274 98.7496758,6.67571371 98.7496758,7.27410484 C98.7496758,8.22697984 101.121279,7.82539113 101.121279,9.66886694 C101.121279,10.8744315 100.184592,11.3291129 99.0921839,11.3291129 C98.5007578,11.3291129 98.2361104,11.2512702 97.7005238,11.1187379 L97.8051243,10.1235484 C98.1790913,10.3323266 98.5998532,10.4648589 99.0276933,10.4648589 C99.4425567,10.4648589 99.9891539,10.2500927 99.9891539,9.75469355 C99.9891539,8.70800806 97.617551,9.14352823 97.617551,7.32081048 C97.617551,6.09368952 98.5538446,5.64579435 99.5070473,5.64579435 C99.9785365,5.64579435 100.409523,5.70846774 100.805904,5.84179839 L100.706809,6.74836694" id="Fill-8" fill="#FFFFFF"></path>
                        <polyline id="Fill-9" fill="#FFFFFF" points="105.034365 6.60705242 103.482264 6.60705242 103.482264 5.73880645 107.671401 5.73880645 107.671401 6.60705242 106.115762 6.60705242 106.115762 11.2349032 105.034365 11.2349032 105.034365 6.60705242"></polyline>
                        <polyline id="Fill-10" fill="#FFFFFF" points="110.30018 5.73880645 113.498364 5.73880645 113.498364 6.60705242 111.383938 6.60705242 111.383938 7.95792339 113.313936 7.95792339 113.313936 8.82616935 111.383938 8.82616935 111.383938 10.37025 113.517633 10.37025 113.517633 11.2349032 110.30018 11.2349032 110.30018 5.73880645"></polyline>
                        <path d="M119.462173,6.74836694 C119.12281,6.59946774 118.737047,6.51284274 118.364652,6.51284274 C117.98754,6.51284274 117.505826,6.67571371 117.505826,7.27410484 C117.505826,8.22697984 119.879789,7.82539113 119.879789,9.66886694 C119.879789,10.8744315 118.940743,11.3291129 117.845581,11.3291129 C117.256908,11.3291129 116.99462,11.2512702 116.46218,11.1187379 L116.560488,10.1235484 C116.929737,10.3323266 117.361509,10.4648589 117.781485,10.4648589 C118.193988,10.4648589 118.744911,10.2500927 118.744911,9.75469355 C118.744911,8.70800806 116.376061,9.14352823 116.376061,7.32081048 C116.376061,6.09368952 117.316287,5.64579435 118.266344,5.64579435 C118.734688,5.64579435 119.171179,5.70846774 119.564414,5.84179839 L119.462173,6.74836694" id="Fill-11" fill="#FFFFFF"></path>
                        <path d="M87.4980303,25.7723347 C87.1071543,25.8649476 86.6816736,25.9463831 86.2699561,25.9463831 C84.5220245,25.9463831 83.3037812,25.057379 83.3037812,23.1963387 C83.3037812,21.3149395 84.4335465,20.2630645 86.2699561,20.2630645 C86.6285868,20.2630645 87.101649,20.330129 87.4933115,20.4894073 L87.4182035,21.4179315 C87.0108116,21.1832056 86.6309462,21.1285161 86.2451822,21.1285161 C85.1315394,21.1285161 84.4335465,21.9939677 84.4335465,23.1204919 C84.4335465,24.2354395 85.1130574,25.0793347 86.2699561,25.0793347 C86.6954368,25.0793347 87.2070361,24.9839274 87.4610662,24.8513952 L87.4980303,25.7723347" id="Fill-12" fill="#FFFFFF"></path>
                        <path d="M91.7890154,20.3576734 L93.0233814,20.3576734 L95.1452799,25.8469839 L93.9411929,25.8469839 L93.4779616,24.591121 L91.2829214,24.591121 L90.8118254,25.8469839 L89.6875652,25.8469839 L91.7890154,20.3576734 L91.7890154,20.3576734 Z M92.3942048,21.4566532 L92.3804415,21.4566532 L91.59633,23.7280645 L93.1700583,23.7280645 L92.3942048,21.4566532 L92.3942048,21.4566532 L92.3942048,21.4566532 Z" id="Fill-13" fill="#FFFFFF"></path>
                        <polyline id="Fill-14" fill="#FFFFFF" points="97.7288367 20.3576734 99.0646574 20.3576734 101.122852 24.4665726 101.138974 24.4665726 101.138974 20.3576734 102.183014 20.3576734 102.183014 25.8469839 100.852699 25.8469839 98.78664 21.7444718 98.765012 21.7444718 98.765012 25.8469839 97.7288367 25.8469839 97.7288367 20.3576734"></polyline>
                        <path d="M106.875493,20.3576734 L108.099241,20.3576734 L110.224286,25.8469839 L109.019806,25.8469839 L108.561293,24.591121 L106.363894,24.591121 L105.890045,25.8469839 L104.766571,25.8469839 L106.875493,20.3576734 L106.875493,20.3576734 Z M107.474783,21.4566532 L107.456302,21.4566532 L106.67219,23.7280645 L108.259682,23.7280645 L107.474783,21.4566532 L107.474783,21.4566532 L107.474783,21.4566532 Z" id="Fill-15" fill="#FFFFFF"></path>
                        <path d="M112.865648,20.3576734 L114.34854,20.3576734 C116.006026,20.3576734 117.470043,20.9213347 117.470043,23.102129 C117.470043,25.2833226 116.006026,25.8469839 114.34854,25.8469839 L112.865648,25.8469839 L112.865648,20.3576734 L112.865648,20.3576734 Z M113.947046,24.9839274 L114.555381,24.9839274 C115.459822,24.9839274 116.339883,24.2981129 116.339883,23.102129 C116.339883,21.9045484 115.459822,21.2207298 114.555381,21.2207298 L113.947046,21.2207298 L113.947046,24.9839274 L113.947046,24.9839274 L113.947046,24.9839274 Z" id="Fill-16" fill="#FFFFFF"></path>
                        <path d="M121.950566,20.3576734 L123.182574,20.3576734 L125.307617,25.8469839 L124.100384,25.8469839 L123.637154,24.591121 L121.444472,24.591121 L120.971411,25.8469839 L119.844004,25.8469839 L121.950566,20.3576734 L121.950566,20.3576734 Z M122.550644,21.4566532 L122.537273,21.4566532 L121.753163,23.7280645 L123.334756,23.7280645 L122.550644,21.4566532 L122.550644,21.4566532 L122.550644,21.4566532 Z" id="Fill-17" fill="#FFFFFF"></path>
                        <path d="M10.9496407,11.1570605 C10.5520797,11.2512702 10.1277786,11.3291129 9.71684762,11.3291129 C7.96341081,11.3291129 6.74713361,10.4409073 6.74713361,8.5822621 C6.74713361,6.70206048 7.87689901,5.64579435 9.71684762,5.64579435 C10.0758716,5.64579435 10.5465744,5.71844758 10.9362707,5.87253629 L10.8639154,6.80305645 C10.4541641,6.56992742 10.0821633,6.51284274 9.69521967,6.51284274 C8.5737122,6.51284274 7.87689901,7.37589919 7.87689901,8.50082661 C7.87689901,9.62056452 8.56073544,10.4648589 9.71684762,10.4648589 C10.1411486,10.4648589 10.6472426,10.37025 10.9052051,10.2337258 L10.9496407,11.1570605" id="Fill-18" fill="#FFFFFF"></path>
                        <path d="M15.2378732,5.73880645 L16.4651609,5.73880645 L18.5866661,11.2349032 L17.3896574,11.2349032 L16.9240667,9.97704435 L14.7266671,9.97704435 L14.2528184,11.2349032 L13.1285583,11.2349032 L15.2378732,5.73880645 L15.2378732,5.73880645 Z M15.8359842,6.843375 L15.8253668,6.843375 L15.0369298,9.10919758 L16.618916,9.10919758 L15.8359842,6.843375 L15.8359842,6.843375 L15.8359842,6.843375 Z" id="Fill-19" fill="#FFFFFF"></path>
                        <polyline id="Fill-20" fill="#FFFFFF" points="21.1761214 5.73880645 22.5048639 5.73880645 24.5717094 9.84930242 24.5846862 9.84930242 24.5846862 5.73880645 25.6220413 5.73880645 25.6220413 11.2349032 24.2995906 11.2349032 22.2280262 7.12480645 22.2107239 7.12480645 22.2107239 11.2349032 21.1761214 11.2349032 21.1761214 5.73880645"></polyline>
                        <path d="M30.3212048,5.73880645 L31.5488858,5.73880645 L33.6711774,11.2349032 L32.46945,11.2349032 L31.9995336,9.97704435 L29.8072461,9.97704435 L29.33615,11.2349032 L28.2122831,11.2349032 L30.3212048,5.73880645 L30.3212048,5.73880645 Z M30.9208888,6.843375 L30.9024067,6.843375 L30.117902,9.10919758 L31.6987084,9.10919758 L30.9208888,6.843375 L30.9208888,6.843375 L30.9208888,6.843375 Z" id="Fill-21" fill="#FFFFFF"></path>
                        <path d="M36.3093939,5.73880645 L37.7895322,5.73880645 C39.4450533,5.73880645 40.9133945,6.30805645 40.9133945,8.48805242 C40.9133945,10.669246 39.4450533,11.2349032 37.7895322,11.2349032 L36.3093939,11.2349032 L36.3093939,5.73880645 L36.3093939,5.73880645 Z M37.3931509,10.37025 L38.0006996,10.37025 C38.9059275,10.37025 39.778517,9.68802823 39.778517,8.48805242 C39.778517,7.29206855 38.9059275,6.60705242 38.0006996,6.60705242 L37.3931509,6.60705242 L37.3931509,10.37025 L37.3931509,10.37025 L37.3931509,10.37025 Z" id="Fill-22" fill="#FFFFFF"></path>
                        <path d="M45.3982446,5.73880645 L46.6227797,5.73880645 L48.7470375,11.2349032 L47.5476694,11.2349032 L47.0832584,9.97704435 L44.889398,9.97704435 L44.4159425,11.2349032 L43.2893229,11.2349032 L45.3982446,5.73880645 L45.3982446,5.73880645 Z M45.9979287,6.843375 L45.9829857,6.843375 L45.1976945,9.10919758 L46.7808604,9.10919758 L45.9979287,6.843375 L45.9979287,6.843375 L45.9979287,6.843375 Z" id="Fill-23" fill="#FFFFFF"></path>
                        <path d="M6.92094367,20.3576734 L8.28861651,20.3576734 C9.46792958,20.3576734 10.5465744,20.7029758 10.5465744,22.0159234 C10.5465744,23.2985323 9.62325758,23.7663871 8.45888746,23.7663871 L8.00352083,23.7663871 L8.00352083,25.8469839 L6.92094367,25.8469839 L6.92094367,20.3576734 L6.92094367,20.3576734 Z M8.00352083,22.8969435 L8.38102684,22.8969435 C8.92172557,22.8969435 9.41287662,22.7177056 9.41287662,22.0805927 C9.41287662,21.4434798 8.94178058,21.2207298 8.38102684,21.2207298 L8.00352083,21.2207298 L8.00352083,22.8969435 L8.00352083,22.8969435 L8.00352083,22.8969435 Z" id="Fill-24" fill="#FFFFFF"></path>
                        <path d="M15.6444786,20.2630645 C17.3444354,20.2630645 18.2999975,21.4255161 18.2999975,23.0857621 C18.2999975,24.7496008 17.3696025,25.9463831 15.6444786,25.9463831 C13.9110968,25.9463831 12.9987906,24.7703589 12.9987906,23.0857621 C12.9987906,21.3999677 13.9315451,20.2630645 15.6444786,20.2630645 L15.6444786,20.2630645 Z M15.6444786,25.0793347 C16.7581213,25.0793347 17.1674794,24.0841452 17.1674794,23.0857621 C17.1674794,22.1197137 16.727449,21.1285161 15.6444786,21.1285161 C14.5697661,21.1285161 14.1297357,22.1197137 14.1297357,23.0857621 C14.1297357,24.0841452 14.5379141,25.0793347 15.6444786,25.0793347 L15.6444786,25.0793347 L15.6444786,25.0793347 Z" id="Fill-25" fill="#FFFFFF"></path>
                        <path d="M24.1407234,21.3624435 C23.7982154,21.2111492 23.4230687,21.1285161 23.0420236,21.1285161 C22.66845,21.1285161 22.1906689,21.2921855 22.1906689,21.8941694 C22.1906689,22.8430524 24.5606988,22.4446573 24.5606988,24.2833427 C24.5606988,25.4885081 23.624012,25.9463831 22.5292446,25.9463831 C21.9429306,25.9463831 21.6767101,25.8649476 21.1454491,25.7332137 L21.2417917,24.7408185 C21.6204775,24.946004 22.0435988,25.0793347 22.4675067,25.0793347 C22.8800106,25.0793347 23.4297538,24.8649677 23.4297538,24.3687702 C23.4297538,23.3256774 21.0553981,23.7592016 21.0553981,21.9392782 C21.0553981,20.7069677 21.9924782,20.2630645 22.9496133,20.2630645 C23.4128446,20.2630645 23.8501224,20.3233427 24.2449307,20.4594677 L24.1407234,21.3624435" id="Fill-26" fill="#FFFFFF"></path>
                        <polyline id="Fill-27" fill="#FFFFFF" points="28.4785035 21.2207298 26.9232574 21.2207298 26.9232574 20.3576734 31.1096418 20.3576734 31.1096418 21.2207298 29.5599009 21.2207298 29.5599009 25.8469839 28.4785035 25.8469839 28.4785035 21.2207298"></polyline>
                    </g>
                </g>
            </g>
        </g>
    </g>
</svg>