<?xml version="1.0" encoding="UTF-8"?>
<svg width="420px" height="163px" viewBox="0 0 420 163" version="1.1" xmlns="http://www.w3.org/2000/svg" xmlns:xlink="http://www.w3.org/1999/xlink">
    <!-- Generator: Sketch 52.5 (67469) - http://www.bohemiancoding.com/sketch -->
    <title>Error_420x180</title>
    <desc>Created with Sketch.</desc>
    <g id="Page" stroke="none" stroke-width="1" fill="none" fill-rule="evenodd">
        <g id="Unsched" transform="translate(-750.000000, -203.000000)">
            <g id="Error_420x180" transform="translate(751.000000, 203.000000)">
                <rect id="Rectangle-path" stroke="#D9D9D9" stroke-width="2" fill="#F0F0F0" stroke-linecap="round" stroke-linejoin="round" x="332" y="148" width="74" height="14"></rect>
                <path d="M341,148 L341,162" id="Shape" stroke="#D9D9D9" stroke-width="2" stroke-linecap="round" stroke-linejoin="round"></path>
                <path d="M397,148 L397,162" id="Shape-2" stroke="#D9D9D9" stroke-width="2" stroke-linecap="round" stroke-linejoin="round"></path>
                <path d="M363,155 L375,155" id="Shape-3" stroke="#D9D9D9" stroke-width="2" stroke-linecap="round" stroke-linejoin="round"></path>
                <polygon id="Rectangle-path-2" stroke="#D9D9D9" stroke-width="2" fill="#F0F0F0" stroke-linecap="round" stroke-linejoin="round" points="339 134 390.24 134 399 134 399 148 339 148"></polygon>
                <path d="M360,141 L373,141" id="Shape-4" stroke="#D9D9D9" stroke-width="2" stroke-linecap="round" stroke-linejoin="round"></path>
                <ellipse id="Oval" stroke="#0467C6" stroke-width="2" fill="#6CB766" stroke-linecap="round" stroke-linejoin="round" transform="translate(21.716036, 119.197994) rotate(-48.370000) translate(-21.716036, -119.197994) " cx="21.716036" cy="119.197994" rx="4.51" ry="5.24"></ellipse>
                <ellipse id="Oval-2" fill="#6BB966" transform="translate(37.639800, 124.478400) rotate(-80.256359) translate(-37.639800, -124.478400) " cx="37.6398" cy="124.4784" rx="16.7950715" ry="14.4646549"></ellipse>
                <ellipse id="Oval-3" stroke="#0467C6" stroke-width="2.00897984" stroke-linecap="round" stroke-linejoin="round" transform="translate(37.639800, 124.478400) rotate(-80.256359) translate(-37.639800, -124.478400) " cx="37.6398" cy="124.4784" rx="16.7950715" ry="14.4646549"></ellipse>
                <path d="M35.07,140.9 C28.07,138.9 23.72,130.9 25.18,122.29 C25.7749378,118.355783 27.6687436,114.733615 30.56,112 L30.99,111.56" id="Shape-5" stroke="#FFFFFF" stroke-width="2" stroke-linecap="round"></path>
                <path d="M46.57,162 L25.57,162 C19.48,162 15.8,130 15.8,130 L56.62,130 C56.48,130 53.65,162 46.57,162 Z" id="Shape-6" fill="#9BC2E8"></path>
                <path d="M27.46,162 C21.21,162 17.91,129.61 17.91,129.61" id="Shape-7" stroke="#FFFFFF" stroke-width="2" stroke-linecap="round" stroke-linejoin="round"></path>
                <ellipse id="Oval-4" stroke="#0467C6" stroke-width="2" fill="#6CB766" stroke-linecap="round" stroke-linejoin="round" transform="translate(40.501364, 89.854356) rotate(-51.550000) translate(-40.501364, -89.854356) " cx="40.5013636" cy="89.8543557" rx="5.24" ry="4.51"></ellipse>
                <ellipse id="Oval-5" fill="#6BB966" transform="translate(33.471875, 100.934969) rotate(-32.310000) translate(-33.471875, -100.934969) " cx="33.4718745" cy="100.934969" rx="10.33" ry="11.93"></ellipse>
                <path d="M36.8,112 C34.3324963,111.640978 32.0056528,110.629457 30.06,109.07 C28.8826102,108.156212 27.8420608,107.078621 26.97,105.87 C23.41,100.66 24.36,93.4 29.44,90.31 C30.4354849,89.5765798 31.6097622,89.1241377 32.84,89 L33,89" id="Shape-8" stroke="#FFFFFF" stroke-width="2"></path>
                <ellipse id="Oval-6" stroke="#0467C6" stroke-width="2" stroke-linecap="round" stroke-linejoin="round" transform="translate(33.471875, 100.934969) rotate(-32.310000) translate(-33.471875, -100.934969) " cx="33.4718745" cy="100.934969" rx="10.33" ry="11.93"></ellipse>
                <path d="M46.57,162 L25.57,162 C19.48,162 15.8,130 15.8,130 L56.62,130 C56.48,130 53.65,162 46.57,162 Z" id="Shape-9" stroke="#0467C6" stroke-width="2" stroke-linecap="round" stroke-linejoin="round"></path>
                <path d="M0,162 L418,162" id="Shape-10" stroke="#0467C6" stroke-width="2" stroke-linecap="round" stroke-linejoin="round"></path>
                <path d="M89.85,142 L341.4,142 C341.833404,141.987676 342.252828,142.154 342.56,142.46 C342.853362,142.793797 343.01043,143.225733 343,143.67 L343,152.4 C343,153.283656 342.283656,154 341.4,154 L75.6,154 C74.7163444,154 74,153.283656 74,152.4 L74,143.67 C73.9895704,143.225733 74.1466378,142.793797 74.44,142.46 C74.747172,142.154 75.1665962,141.987676 75.6,142 L89.85,142 Z" id="Shape-11" fill="#9BC2E8"></path>
                <polygon id="Shape-12" fill="#3685D1" points="317 162 103 162 77 154 339 154"></polygon>
                <path d="M76,154 L76,142" id="Shape-13" stroke="#FFFFFF" stroke-width="2" stroke-linecap="round" stroke-linejoin="round"></path>
                <path d="M345,134 L345,148" id="Shape-14" stroke="#D9D9D9" stroke-width="2" stroke-linecap="round" stroke-linejoin="round"></path>
                <path d="M393,148 L393,134" id="Path" stroke="#D9D9D9" stroke-width="2" fill="#F0F0F0" stroke-linecap="round" stroke-linejoin="round"></path>
                <polygon id="Shape-15" stroke="#0467C6" stroke-width="2" stroke-linecap="round" stroke-linejoin="round" points="316.75 162 102.4 162 77.26 154 338.97 154"></polygon>
                <path d="M112.78,1 L306.22,1 C308.305356,1.00549504 309.994505,2.69464401 310,4.78 L310,142 L109,142 L109,4.78 C109.005495,2.69464401 110.694644,1.00549504 112.78,1 Z" id="Shape-16" fill="#E5EFF9"></path>
                <path d="M115.36,1 C113.034733,0.926880948 111.086847,2.7452051 111,5.07 L111,142" id="Shape-17" stroke="#FFFFFF" stroke-width="2" stroke-linecap="round" stroke-linejoin="round"></path>
                <path d="M109,21 L109,142 L310,142 L310,4.78 C309.994505,2.69464401 308.305356,1.00549504 306.22,1 L113,1 C112.06834,1.02985928 111.168088,1.34390042 110.42,1.9 C109.537669,2.59762406 109.016171,3.65531075 109,4.78 L109,22" id="Shape-18" stroke="#0467C6" stroke-width="2" stroke-linecap="round" stroke-linejoin="round"></path>
                <rect id="Rectangle-path-3" fill="#FFFFFF" x="118" y="11" width="182" height="121"></rect>
                <rect id="Rectangle-path-4" stroke="#0467C6" stroke-width="2" stroke-linecap="round" stroke-linejoin="round" x="118" y="12" width="182" height="120"></rect>
                <rect id="Rectangle-path-5" stroke="#0467C6" stroke-width="2" fill="#9BC2E8" stroke-linecap="round" stroke-linejoin="round" x="118" y="12" width="182" height="29"></rect>
                <circle id="Oval-7" stroke="#0467C6" stroke-width="2" fill="#E5EFF9" stroke-linecap="round" stroke-linejoin="round" cx="133.67" cy="25.72" r="4.36"></circle>
                <circle id="Oval-8" stroke="#0467C6" stroke-width="2" fill="#E5EFF9" stroke-linecap="round" stroke-linejoin="round" cx="149.66" cy="25.72" r="4.36"></circle>
                <circle id="Oval-9" stroke="#0467C6" stroke-width="2" fill="#E5EFF9" stroke-linecap="round" stroke-linejoin="round" cx="167.11" cy="25.72" r="4.36"></circle>
                <path d="M191,142 L184.46,142 C184.46,144.15 186.01,145.7 187.92,145 L231.76,145 C233.68,145.7 235.22,144.15 235.22,142 L227,142" id="Shape-19" stroke="#0467C6" stroke-width="2" stroke-linecap="round" stroke-linejoin="round"></path>
                <g id="Group" transform="translate(169.000000, 62.000000)">
                    <circle id="Oval-10" fill="#0467C6" cx="73.3" cy="21.02" r="4.94"></circle>
                    <path d="M70.83,8.66 C73.6662198,10.4931474 76.9135245,11.5927638 80.28,11.86" id="Shape-20" stroke="#0467C6" stroke-width="2" fill="#FFFFFF" stroke-linecap="round" stroke-linejoin="round"></path>
                    <circle id="Oval-11" fill="#0467C6" cx="6.98" cy="21.02" r="4.94"></circle>
                    <path d="M0.15,2.41 C0.15,2.41 6.55,-1.96 12.8,1.82" id="Shape-21" stroke="#0467C6" stroke-width="2" fill="#FFFFFF" stroke-linecap="round" stroke-linejoin="round"></path>
                    <path d="M47.56,42.25 C47.56,42.25 52.07,35.71 59.19,38.62" id="Shape-22" stroke="#0467C6" stroke-width="2" stroke-linecap="round" stroke-linejoin="round"></path>
                </g>
                <path d="M90,142 L341.4,142 C341.833404,141.987676 342.252828,142.154 342.56,142.46 C342.853362,142.793797 343.01043,143.225733 343,143.67 L343,152.4 C343,153.283656 342.283656,154 341.4,154 L75.6,154 C74.7163444,154 74,153.283656 74,152.4 L74,143.67 C73.9895704,143.225733 74.1466378,142.793797 74.44,142.46 C74.747172,142.154 75.1665962,141.987676 75.6,142 L83,142" id="Shape-23" stroke="#0467C6" stroke-width="2" stroke-linecap="round" stroke-linejoin="round"></path>
                <g id="Shape-24" transform="translate(347.000000, 99.000000)" stroke="#D9D9D9" stroke-linecap="round" stroke-linejoin="round" stroke-width="2">
                    <path d="M17.85,35 L30.35,35 C31.3704112,35.0359496 32.2814487,34.3650947 32.55,33.38 C33.4432,30.641523 34.1317609,27.8404841 34.61,25 C37.26,9.71 35.79,0 35.79,0 L1.38,0 C1.38,0 -0.09,9.71 2.55,25 C3.02823914,27.8404841 3.7168,30.641523 4.61,33.38 C4.88576835,34.3644536 5.79819331,35.03329 6.82,35 L17.85,35 Z" id="Path" fill="#F0F0F0"></path>
                    <path d="M36,11 L40.13,11 C41.0207159,11.0228455 41.8702725,11.3798021 42.51,12 C43.1058994,12.695411 43.3752943,13.6128099 43.25,14.52 L42.36,22.99 C42.1793427,24.6699443 40.7792556,25.9544279 39.09,25.99 L35,25.99" id="Path"></path>
                </g>
                <path d="M371.35,67.49 L360.77,67.49 C359.534091,67.49 358.348802,66.9990371 357.474882,66.1251176 C356.600963,65.2511981 356.11,64.0659088 356.11,62.83 C356.11,61.5940912 356.600963,60.4088019 357.474882,59.5348824 C358.348802,58.6609629 359.534091,58.17 360.77,58.17 L362.65,58.17 C363.791245,58.1726634 364.886515,57.7204843 365.6935,56.9134998 C366.500484,56.1065153 366.952663,55.0112453 366.95,53.87 C366.95,51.4951756 365.024824,49.57 362.65,49.57 L356,49.57 C353.962069,49.57 352.31,47.9179307 352.31,45.88 C352.308274,44.8812842 352.712541,43.9247584 353.43,43.23 C353.582476,43.0614531 353.626629,42.82122 353.544047,42.6094717 C353.461465,42.3977234 353.266327,42.2508136 353.04,42.23 L335.04,42.23 C333.208178,42.1857418 331.600294,43.4419012 331.2,45.23 C331.004313,46.3064263 331.296386,47.4141897 331.997362,48.2542018 C332.698337,49.0942138 333.735931,49.579853 334.83,49.58 L336.83,49.58 C339.202543,49.5854984 341.124502,51.5074568 341.13,53.88 C341.13,56.2548244 339.204824,58.18 336.83,58.18 L330.7,58.18 C328.126353,58.18 326.04,60.2663531 326.04,62.84 C326.04,65.4136469 328.126353,67.5 330.7,67.5 L343.45,67.5 C346.445,67.5055157 348.870005,69.9349947 348.87,72.93 C348.87,75.9233833 346.443383,78.35 343.45,78.35 L340.66,78.35 C338.555282,78.2983622 336.711587,79.7514795 336.27,81.81 C336.037798,83.0446234 336.367736,84.3185102 337.170077,85.2851858 C337.972418,86.2518615 339.163731,86.8108073 340.42,86.81 L352.48,86.81 C354.479271,86.81 356.1,88.4307292 356.1,90.43 C356.098592,91.3868923 355.71733,92.3040791 355.04,92.98 C354.866108,93.1659459 354.821222,93.4382762 354.926241,93.6701928 C355.03126,93.9021094 355.26554,94.0480247 355.52,94.04 L369.15,94.04 C371.119872,94.0742434 372.782144,92.582125 372.96,90.62 C373.012077,89.6291754 372.655185,88.6604045 371.972757,87.9401696 C371.29033,87.2199347 370.342191,86.8113732 369.35,86.81 L368.75,86.81 C366.419358,86.81 364.53,84.9206416 364.53,82.59 C364.535514,80.2632646 366.423258,78.3799935 368.75,78.38 L371.57,78.38 C373.108628,78.3803187 374.574883,77.7266762 375.603117,76.5820747 C376.63135,75.4374732 377.12465,73.9097933 376.96,72.38 C376.617376,69.5543029 374.196017,67.4437066 371.35,67.49 Z" id="Path" fill="#F0F0F0"></path>
                <rect id="Rectangle" fill="#F0F0F0" x="351.09" y="30.55" width="12.05" height="6.83" rx="3.41"></rect>
                <circle id="Oval" fill="#F0F0F0" cx="365.54" cy="26.53" r="2.41"></circle>
            </g>
        </g>
    </g>
</svg>