<?xml version="1.0" encoding="UTF-8"?>
<svg width="135px" height="32px" viewBox="0 0 135 32" version="1.1" xmlns="http://www.w3.org/2000/svg" xmlns:xlink="http://www.w3.org/1999/xlink">
    <!-- Generator: Sketch 3.8.1 (29687) - http://www.bohemiancoding.com/sketch -->
    <title>logo-desktop-fr</title>
    <desc>Created with Sketch.</desc>
    <defs>
        <polygon id="path-1" points="0.0222486724 31.8897638 134.818797 31.8897638 134.818797 0.000741622414 0.0222486724 0.000741622414"></polygon>
        <polygon id="path-3" points="0.0222486724 31.8897638 134.818797 31.8897638 134.818797 0.000741622414 0.0222486724 0.000741622414"></polygon>
    </defs>
    <g id="Page-1" stroke="none" stroke-width="1" fill="none" fill-rule="evenodd">
        <g id="logo-desktop-fr">
            <g id="Page-1">
                <g id="CanadaPost_FR_RGB">
                    <g id="Group-4">
                        <g id="mask-2" fill="#FFFFFF">
                            <polygon id="path-1" points="0.0222486724 31.8897638 134.818797 31.8897638 134.818797 0.000741622414 0.0222486724 0.000741622414"></polygon>
                        </g>
                        <g id="Fill-1-Clipped">
                            <mask id="mask-2" fill="white">
                                <use xlink:href="#path-1"></use>
                            </mask>
                            <g id="path-1"></g>
                            <polygon id="Fill-1" fill="#1F437B" mask="url(#mask-2)" points="0.0222486724 31.8897638 134.818797 31.8897638 134.818797 0.000741622414 0.0222486724 0.000741622414"></polygon>
                        </g>
                        <g id="Fill-3-Clipped">
                            <mask id="mask-4" fill="white">
                                <use xlink:href="#path-3"></use>
                            </mask>
                            <g id="path-1"></g>
                            <path d="M54.3212461,16.0038409 C54.3212461,15.8521791 54.3227294,15.7023714 54.3260667,15.5503388 L0.00148324483,15.5503388 L0.00148324483,16.3460997 L54.3260667,16.3460997 C54.3212461,16.2330022 54.3212461,16.115455 54.3212461,16.0038409" id="Fill-3" fill="#FFFFFE" mask="url(#mask-4)"></path>
                        </g>
                    </g>
                    <path d="M80.4626946,15.5495971 C80.4675151,15.701259 80.4741897,15.8514374 80.4741897,16.0049533 C80.4741897,16.1161967 80.4675151,16.2322605 80.4626946,16.345358 L134.818055,16.345358 L134.818055,15.5495971 L80.4626946,15.5495971" id="Fill-5" fill="#FFFFFE"></path>
                    <path d="M80.4738189,15.9849295 C80.4738189,23.2049945 74.6235304,29.0586202 67.3934535,29.0586202 C60.1733885,29.0586202 54.3201337,23.2049945 54.3201337,15.9849295 C54.3201337,8.7581899 60.1733885,2.90641824 67.3934535,2.90641824 C74.6235304,2.90641824 80.4738189,8.7581899 80.4738189,15.9849295" id="Fill-6" fill="#C6242B"></path>
                    <polyline id="Fill-7" fill="#FFFFFE" points="63.252234 17.6876946 64.1785204 16.7614081 74.5393563 16.2949276 75.0024996 15.8336385 64.7951794 15.8336385 59.2289325 9.33146402 77.7846961 15.5221571 71.6021608 21.7128502 59.2289325 21.7128502 60.4685543 20.4698911 70.8260529 20.0086019 71.2843756 19.5436046 61.3929866 19.5436046 62.3226103 18.6124977 72.6834463 18.1493545 73.1465894 17.6876946 63.252234 17.6876946"></polyline>
                    <path d="M8.03844534,8.35437649 L8.42557224,8.35437649 C8.98253067,8.35437649 9.48572148,8.17379143 9.48572148,7.52969236 C9.48572148,6.88262681 8.99699231,6.66162333 8.42557224,6.66162333 L8.03844534,6.66162333 L8.03844534,8.35437649 L8.03844534,8.35437649 Z M6.92304523,5.78354239 L8.33212781,5.78354239 C9.54245559,5.78354239 10.6478438,6.13544223 10.6478438,7.46517122 C10.6478438,8.76115638 9.69745468,9.22912012 8.51122963,9.22912012 L8.03844534,9.22912012 L8.03844534,11.3382942 L6.92304523,11.3382942 L6.92304523,5.78354239 L6.92304523,5.78354239 L6.92304523,5.78354239 Z" id="Fill-8" fill="#FFFFFE"></path>
                    <path d="M15.8874061,10.5595907 C17.0187512,10.5595907 17.4448132,9.54764696 17.4448132,8.54386101 C17.4448132,7.56751511 16.9913111,6.56521241 15.8874061,6.56521241 C14.7801639,6.56521241 14.3236953,7.56751511 14.3236953,8.54386101 C14.3236953,9.54764696 14.7449368,10.5595907 15.8874061,10.5595907 M15.8874061,5.68898554 C17.6320729,5.68898554 18.6065647,6.86371543 18.6065647,8.54386101 C18.6065647,10.2221525 17.6480178,11.4324803 15.8874061,11.4324803 C14.0993545,11.4324803 13.163427,10.2481093 13.163427,8.54386101 C13.163427,6.84295001 14.1138162,5.68898554 15.8874061,5.68898554" id="Fill-9" fill="#FFFFFE"></path>
                    <path d="M24.6014696,6.80327321 C24.252907,6.65309467 23.8576222,6.56595404 23.467158,6.56595404 C23.0878182,6.56595404 22.5938976,6.73096502 22.5938976,7.33427486 C22.5938976,8.29764237 25.0275316,7.89271654 25.0275316,9.75493042 C25.0275316,10.973416 24.0656473,11.4335927 22.9457975,11.4335927 C22.3391503,11.4335927 22.0662333,11.3542391 21.5174327,11.2203763 L21.6242263,10.2151071 C22.00987,10.4264695 22.4407526,10.5603324 22.8794223,10.5603324 C23.3058551,10.5603324 23.86578,10.3422954 23.86578,9.84207105 C23.86578,8.78340506 21.4321461,9.22392877 21.4321461,7.38285113 C21.4321461,6.14174602 22.3940304,5.68972716 23.3718596,5.68972716 C23.854285,5.68972716 24.2966627,5.75276507 24.7034426,5.88662791 L24.6014696,6.80327321" id="Fill-10" fill="#FFFFFE"></path>
                    <polyline id="Fill-11" fill="#FFFFFE" points="29.0423046 6.66051089 27.4496704 6.66051089 27.4496704 5.78280077 31.7470015 5.78280077 31.7470015 6.66051089 30.15103 6.66051089 30.15103 11.3375527 29.0423046 11.3375527 29.0423046 6.66051089"></polyline>
                    <polyline id="Fill-12" fill="#FFFFFE" points="34.444653 5.78280077 37.7270737 5.78280077 37.7270737 6.66088171 35.556345 6.66088171 35.556345 8.02620857 37.5364768 8.02620857 37.5364768 8.9039187 35.556345 8.9039187 35.556345 10.4646631 37.746356 10.4646631 37.746356 11.3379234 34.444653 11.3379234 34.444653 5.78280077"></polyline>
                    <path d="M43.8450879,6.80327321 C43.4965254,6.65309467 43.1012406,6.56595404 42.7185634,6.56595404 C42.3314366,6.56595404 41.837516,6.73096502 41.837516,7.33427486 C41.837516,8.29764237 44.2744873,7.89271654 44.2744873,9.75493042 C44.2744873,10.973416 43.3092657,11.4335927 42.1860786,11.4335927 C41.5823979,11.4335927 41.3128182,11.3542391 40.7673549,11.2203763 L40.8674739,10.2151071 C41.2468137,10.4264695 41.6888207,10.5603324 42.1200742,10.5603324 C42.542799,10.5603324 43.1090276,10.3422954 43.1090276,9.84207105 C43.1090276,8.78340506 40.678731,9.22392877 40.678731,7.38285113 C40.678731,6.14174602 41.6420985,5.68972716 42.6184444,5.68972716 C43.0979033,5.68972716 43.5465849,5.75276507 43.9500275,5.88662791 L43.8450879,6.80327321" id="Fill-13" fill="#FFFFFE"></path>
                    <path d="M11.04832,26.0305759 C10.6463605,26.1243912 10.2106574,26.2067112 9.78793262,26.2067112 C7.99506043,26.2067112 6.74431423,25.3074941 6.74431423,23.4274812 C6.74431423,21.5248489 7.90458249,20.4628457 9.78793262,20.4628457 C10.1557773,20.4628457 10.64154,20.5307041 11.0434994,20.692007 L10.9659998,21.6297885 C10.5480956,21.3924693 10.1591146,21.3375892 9.76197583,21.3375892 C8.62136056,21.3375892 7.90458249,22.2123329 7.90458249,23.3499817 C7.90458249,24.4779894 8.60170756,25.3301136 9.78793262,25.3301136 C10.2254898,25.3301136 10.7498169,25.2333319 11.0097556,25.0994689 L11.04832,26.0305759" id="Fill-14" fill="#FFFFFE"></path>
                    <path d="M16.0716993,21.6687237 L16.0587209,21.6687237 L15.253319,23.9651575 L16.8670893,23.9651575 L16.0716993,21.6687237 L16.0716993,21.6687237 Z M15.4502198,20.558515 L16.7169109,20.558515 L18.8943143,26.106963 L17.6580297,26.106963 L17.1833913,24.8365638 L14.9321965,24.8365638 L14.4479171,26.106963 L13.2958067,26.106963 L15.4502198,20.558515 L15.4502198,20.558515 L15.4502198,20.558515 Z" id="Fill-15" fill="#FFFFFE"></path>
                    <polyline id="Fill-16" fill="#FFFFFE" points="21.5448727 20.5581441 22.9150201 20.5581441 25.0275316 24.710488 25.0438472 24.710488 25.0438472 20.5581441 26.1154917 20.5581441 26.1154917 26.1062213 24.7501648 26.1062213 22.6294955 21.960552 22.6083593 21.960552 22.6083593 26.1062213 21.5448727 26.1062213 21.5448727 20.5581441"></polyline>
                    <path d="M31.5445386,21.6687237 L31.5252563,21.6687237 L30.7213377,23.9651575 L32.3495696,23.9651575 L31.5445386,21.6687237 L31.5445386,21.6687237 Z M30.9293627,20.558515 L32.1834463,20.558515 L34.3652994,26.106963 L33.1293857,26.106963 L32.6595678,24.8365638 L30.4050357,24.8365638 L29.9192731,26.106963 L28.7653086,26.106963 L30.9293627,20.558515 L30.9293627,20.558515 L30.9293627,20.558515 Z" id="Fill-17" fill="#FFFFFE"></path>
                    <path d="M38.1850256,25.2337026 L38.8079884,25.2337026 C39.7372414,25.2337026 40.6412791,24.5413981 40.6412791,23.3325535 C40.6412791,22.1222258 39.7372414,21.4299213 38.8079884,21.4299213 L38.1850256,21.4299213 L38.1850256,25.2337026 L38.1850256,25.2337026 Z M37.0763001,20.558515 L38.5962553,20.558515 C40.2975371,20.558515 41.8000641,21.1280809 41.8000641,23.3325535 C41.8000641,25.535543 40.2975371,26.1065922 38.5962553,26.1065922 L37.0763001,26.1065922 L37.0763001,20.558515 L37.0763001,20.558515 L37.0763001,20.558515 Z" id="Fill-18" fill="#FFFFFE"></path>
                    <path d="M47.0118156,21.6687237 L46.997354,21.6687237 L46.193806,23.9651575 L47.8157343,23.9651575 L47.0118156,21.6687237 L47.0118156,21.6687237 Z M46.3970106,20.558515 L47.6588812,20.558515 L49.8411051,26.106963 L48.6014832,26.106963 L48.1268449,24.8365638 L45.8775041,24.8365638 L45.3917415,26.106963 L44.2344396,26.106963 L46.3970106,20.558515 L46.3970106,20.558515 L46.3970106,20.558515 Z" id="Fill-19" fill="#FFFFFE"></path>
                    <path d="M89.60282,11.2593115 C89.1945569,11.35461 88.7588537,11.4335927 88.3376122,11.4335927 C86.5380654,11.4335927 85.2906564,10.5362296 85.2906564,8.65770005 C85.2906564,6.756551 86.4494415,5.68824391 88.3376122,5.68824391 C88.7054569,5.68824391 89.1897363,5.76277696 89.5883584,5.91925929 L89.5138253,6.85852408 C89.0944378,6.62268815 88.7121315,6.56632485 88.3149926,6.56632485 C87.1643655,6.56632485 86.4494415,7.43773118 86.4494415,8.57537996 C86.4494415,9.70672496 87.1513871,10.5603324 88.3376122,10.5603324 C88.7733153,10.5603324 89.2913386,10.4635506 89.557581,10.3263505 L89.60282,11.2593115" id="Fill-20" fill="#FFFFFE"></path>
                    <path d="M94.6161875,6.89931332 L94.6046924,6.89931332 L93.7959531,9.18944332 L95.4178814,9.18944332 L94.6161875,6.89931332 L94.6161875,6.89931332 Z M94.0028658,5.78280077 L95.261399,5.78280077 L97.4369484,11.3375527 L96.2103049,11.3375527 L95.7327001,10.0675243 L93.4781679,10.0675243 L92.990922,11.3375527 L91.8369575,11.3375527 L94.0028658,5.78280077 L94.0028658,5.78280077 L94.0028658,5.78280077 Z" id="Fill-21" fill="#FFFFFE"></path>
                    <polyline id="Fill-22" fill="#FFFFFE" points="100.094923 5.78280077 101.458396 5.78280077 103.579065 9.93699871 103.592044 9.93699871 103.592044 5.78280077 104.657013 5.78280077 104.657013 11.3379234 103.299844 11.3379234 101.174355 7.18372551 101.156556 7.18372551 101.156556 11.3379234 100.094923 11.3379234 100.094923 5.78280077"></polyline>
                    <path d="M110.093106,6.89931332 L110.073823,6.89931332 L109.268422,9.18944332 L110.89035,9.18944332 L110.093106,6.89931332 L110.093106,6.89931332 Z M109.478301,5.78280077 L110.737205,5.78280077 L112.914237,11.3375527 L111.681291,11.3375527 L111.200348,10.0675243 L108.950636,10.0675243 L108.466357,11.3375527 L107.314247,11.3375527 L109.478301,5.78280077 L109.478301,5.78280077 L109.478301,5.78280077 Z" id="Fill-23" fill="#FFFFFE"></path>
                    <path d="M116.733593,10.4642923 L117.356556,10.4642923 C118.286179,10.4642923 119.180205,9.77495422 119.180205,8.56165996 C119.180205,7.35281541 118.286179,6.66051089 117.356556,6.66051089 L116.733593,6.66051089 L116.733593,10.4642923 L116.733593,10.4642923 Z M115.62153,5.78242996 L117.140373,5.78242996 C118.837947,5.78242996 120.345294,6.35867058 120.345294,8.56165996 C120.345294,10.7661325 118.837947,11.3371818 117.140373,11.3371818 L115.62153,11.3371818 L115.62153,5.78242996 L115.62153,5.78242996 L115.62153,5.78242996 Z" id="Fill-24" fill="#FFFFFE"></path>
                    <path d="M125.561495,6.89931332 L125.547033,6.89931332 L124.741632,9.18944332 L126.365414,9.18944332 L125.561495,6.89931332 L125.561495,6.89931332 Z M124.94669,5.78280077 L126.20374,5.78280077 L128.382626,11.3375527 L127.152646,11.3375527 L126.675041,10.0675243 L124.42533,10.0675243 L123.939567,11.3375527 L122.782636,11.3375527 L124.94669,5.78280077 L124.94669,5.78280077 L124.94669,5.78280077 Z" id="Fill-25" fill="#FFFFFE"></path>
                    <path d="M86.579967,23.1241577 L86.9674647,23.1241577 C87.5225691,23.1241577 88.0261307,22.9435726 88.0261307,22.2994736 C88.0261307,21.6557453 87.5418513,21.4299213 86.9674647,21.4299213 L86.579967,21.4299213 L86.579967,23.1241577 L86.579967,23.1241577 Z M85.4697583,20.558515 L86.8721662,20.558515 C88.0824941,20.558515 89.1893655,20.9070774 89.1893655,22.2334691 C89.1893655,23.5309375 88.2423136,24.0037219 87.0464475,24.0037219 L86.579967,24.0037219 L86.579967,26.1065922 L85.4697583,26.1065922 L85.4697583,20.558515 L85.4697583,20.558515 L85.4697583,20.558515 Z" id="Fill-26" fill="#FFFFFE"></path>
                    <path d="M94.4196576,25.3297427 C95.5621269,25.3297427 95.9818852,24.3241027 95.9818852,23.3154962 C95.9818852,22.3391503 95.5298663,21.3368477 94.4196576,21.3368477 C93.3176066,21.3368477 92.8655878,22.3391503 92.8655878,23.3154962 C92.8655878,24.3241027 93.2853461,25.3297427 94.4196576,25.3297427 M94.4196576,20.4624748 C96.1643243,20.4624748 97.1440075,21.6372047 97.1440075,23.3154962 C97.1440075,24.9971251 96.1899102,26.2059696 94.4196576,26.2059696 C92.641247,26.2059696 91.7053195,25.0182613 91.7053195,23.3154962 C91.7053195,21.6112479 92.6623833,20.4624748 94.4196576,20.4624748" id="Fill-27" fill="#FFFFFE"></path>
                    <path d="M103.136317,21.5734252 C102.7859,21.4213926 102.400256,21.3375892 102.009792,21.3375892 C101.627115,21.3375892 101.135049,21.5022295 101.135049,22.1107306 C101.135049,23.0692776 103.567199,22.6673183 103.567199,24.5265656 C103.567199,25.7435681 102.606798,26.2067112 101.483611,26.2067112 C100.881785,26.2067112 100.608867,26.1243912 100.063404,25.9920116 L100.16204,24.9882256 C100.55065,25.1947675 100.98487,25.3301136 101.420573,25.3301136 C101.843298,25.3301136 102.40656,25.1139306 102.40656,24.612223 C102.40656,23.5583776 99.971443,23.9955641 99.971443,22.1574528 C99.971443,20.9115272 100.931844,20.4628457 101.914494,20.4628457 C102.390615,20.4628457 102.837443,20.5225462 103.244223,20.6616004 L103.136317,21.5734252" id="Fill-28" fill="#FFFFFE"></path>
                    <polyline id="Fill-29" fill="#FFFFFE" points="107.587164 21.4299213 105.991192 21.4299213 105.991192 20.558515 110.28704 20.558515 110.28704 21.4299213 108.695889 21.4299213 108.695889 26.106963 107.587164 26.106963 107.587164 21.4299213"></polyline>
                </g>
            </g>
        </g>
    </g>
</svg>