<svg id="Illustrations" xmlns="http://www.w3.org/2000/svg" viewBox="0 0 290 150"><defs><style>.cls-1,.cls-17,.cls-3,.cls-5{fill:#f0f0f0;}.cls-1,.cls-2,.cls-4{stroke:#d8d8d8;}.cls-1,.cls-10,.cls-12,.cls-13,.cls-15,.cls-17,.cls-2,.cls-4,.cls-5,.cls-6,.cls-8{stroke-linecap:round;stroke-linejoin:round;stroke-width:2px;}.cls-2,.cls-8{fill:#fff;}.cls-13,.cls-15,.cls-4,.cls-6{fill:none;}.cls-5{stroke:#f0f0f0;}.cls-10,.cls-12,.cls-6,.cls-8{stroke:#0067cc;}.cls-7{fill:#91c2eb;}.cls-10,.cls-9{fill:#e2eef9;}.cls-11{fill:#0067cc;}.cls-12{fill:#4ebb5b;}.cls-13{stroke:#fff;}.cls-14{fill:#d8d8d8;}.cls-15,.cls-17{stroke:#d7d7d7;}.cls-16{fill:#e3edf7;}</style></defs><title>SuggestStampTheme</title><polygon class="cls-1" points="51 135 51 122 74 122 72 136 51 135"/><path class="cls-2" d="M51,125h2.86A1.14,1.14,0,0,1,55,126.14v3.72A1.14,1.14,0,0,1,53.86,131H51Z"/><line class="cls-1" x1="43.74" y1="137.07" x2="40.74" y2="112"/><path class="cls-2" d="M78,147H27l-1-6,.25-1a4.24,4.24,0,0,1,3.82-3.2L85,133C84.45,139,82.12,141.69,78,147Z"/><path class="cls-1" d="M23.42,141.28l60.81-4.23A19,19,0,0,1,78,147H27Z"/><path class="cls-2" d="M48.5,119h26a1.5,1.5,0,0,1,1.5,1.5v0a1.5,1.5,0,0,1-1.5,1.5H47a0,0,0,0,1,0,0v-1.5A1.5,1.5,0,0,1,48.5,119Z"/><line class="cls-2" x1="81.95" y1="137.21" x2="86" y2="137"/><circle class="cls-2" cx="74" cy="137" r="5"/><rect class="cls-3" x="69" y="136" width="10" height="2" transform="translate(118.55 -12.2) rotate(45)"/><rect class="cls-3" x="69" y="136" width="10" height="2" transform="translate(-75.2 92.45) rotate(-45)"/><circle class="cls-4" cx="74" cy="137" r="1"/><circle class="cls-4" cx="74" cy="137" r="5"/><rect class="cls-2" x="59" y="125" width="5" height="6" rx="1.14" ry="1.14"/><path class="cls-2" d="M73.57,125H69.14A1.14,1.14,0,0,0,68,126.14v3.72A1.14,1.14,0,0,0,69.14,131h3.57Z"/><line class="cls-2" x1="79" y1="145.26" x2="27.08" y2="145.26"/><rect class="cls-3" x="19.98" y="25.04" width="34.33" height="44.48" transform="matrix(1, 0.08, -0.08, 1, 4.1, -2.95)"/><line class="cls-5" x1="235" y1="57" x2="235" y2="41"/><line class="cls-6" x1="202" y1="149" x2="289" y2="149"/><line class="cls-6" x1="1" y1="149" x2="198" y2="149"/><path class="cls-4" d="M241,79.93h0a3,3,0,0,1-3,3h0a3,3,0,0,1-3-3h0l0-4"/><path class="cls-4" d="M229,80h0a3,3,0,0,0,3,3h0a3,3,0,0,0,3-3h0l0-4"/><circle class="cls-4" cx="235" cy="74" r="2"/><ellipse class="cls-4" cx="235" cy="64.5" rx="4" ry="7.5" transform="translate(-0.41 1.5) rotate(-0.37)"/><path class="cls-1" d="M235,57c-2.29,0-4.12,3.66-3.94,8h0l8,0h0C239.12,60.58,237.25,57,235,57Z"/><polyline class="cls-1" points="241 80 240.99 77.93 243 79.92"/><polyline class="cls-1" points="229 80 228.99 78.01 227 80.02"/><rect class="cls-7" x="101.43" y="38" width="109.57" height="81"/><polyline class="cls-6" points="98.43 50.99 98.43 38 210.57 38 210.57 119 98.43 119 98.43 54.44"/><rect class="cls-8" x="104.55" y="43.97" width="99.91" height="69.06"/><path class="cls-6" d="M185.3,91.67A2.7,2.7,0,0,1,188,89V85.59a2.7,2.7,0,1,1,0-5.4V76.81a2.7,2.7,0,1,1,0-5.4V68a2.7,2.7,0,1,1,0-5.4V57.9H184a2.7,2.7,0,1,1-5.4,0h-3.38a2.7,2.7,0,1,1-5.4,0h-3.38a2.7,2.7,0,1,1-5.4,0h-3.38a2.7,2.7,0,1,1-5.4,0h-3.38a2.7,2.7,0,1,1-5.4,0h-3.37a2.71,2.71,0,1,1-5.41,0h-3.37a2.71,2.71,0,1,1-5.41,0h-4.72v4.73a2.7,2.7,0,0,1,0,5.4v3.38a2.7,2.7,0,0,1,0,5.4v3.38a2.7,2.7,0,0,1,0,5.4V89a2.7,2.7,0,0,1,0,5.4V99.1h4.72a2.71,2.71,0,1,1,5.41,0h3.37a2.71,2.71,0,1,1,5.41,0h3.37a2.7,2.7,0,1,1,5.4,0h3.38a2.7,2.7,0,1,1,5.4,0H161a2.7,2.7,0,1,1,5.4,0h3.38a2.7,2.7,0,1,1,5.4,0h3.38a2.7,2.7,0,1,1,5.4,0H188V94.37A2.7,2.7,0,0,1,185.3,91.67Z"/><rect class="cls-9" x="127.22" y="63.98" width="54.7" height="29.04" rx="1.15" ry="1.15"/><path class="cls-10" d="M153,86a25.59,25.59,0,0,1-4.88,1.09,1.11,1.11,0,0,1-1.05-1.5c.28-.8,1.2-1.78.93-2.59"/><path class="cls-10" d="M157.25,86.94a8.94,8.94,0,0,1-.35,3.57.5.5,0,0,0,.59.65c2.22-.51,4.27-3,6.19-5.18"/><path class="cls-10" d="M152.56,71.83a5.74,5.74,0,0,0,.52-4.45.46.46,0,0,1,.54-.56,17.42,17.42,0,0,1,8.31,4.35"/><ellipse class="cls-9" cx="158.29" cy="78.84" rx="13.64" ry="8.1"/><path class="cls-11" d="M158.29,87.94a16.52,16.52,0,0,1-14.52-8.62,1,1,0,0,1,0-1,16.53,16.53,0,0,1,29,0,1,1,0,0,1,0,1A16.53,16.53,0,0,1,158.29,87.94Zm-12.49-9.1a14.54,14.54,0,0,0,25,0,14.53,14.53,0,0,0-25,0Z"/><path class="cls-10" d="M171.93,78.84a15.56,15.56,0,0,0-8.25-7.14,10.81,10.81,0,0,0,0,14.27A15.54,15.54,0,0,0,171.93,78.84Z"/><path class="cls-10" d="M138,82.53a7.07,7.07,0,0,0,6.21-3.69A7.07,7.07,0,0,0,138,75.15,10,10,0,0,1,138,82.53Z"/><circle class="cls-8" cx="165.72" cy="77.49" r="1.35"/><rect class="cls-1" x="223" y="135" width="57" height="12" transform="translate(503 282) rotate(-180)"/><line class="cls-4" x1="274" y1="135" x2="274" y2="147"/><line class="cls-4" x1="229" y1="135" x2="229" y2="147"/><line class="cls-4" x1="233" y1="135" x2="233" y2="147"/><line class="cls-4" x1="270" y1="135" x2="270" y2="147"/><rect class="cls-1" x="232" y="124" width="39" height="11" transform="translate(503 259) rotate(-180)"/><line class="cls-4" x1="264" y1="124" x2="264" y2="134"/><line class="cls-4" x1="238" y1="124" x2="238" y2="134"/><line class="cls-4" x1="256" y1="129" x2="246" y2="129"/><path class="cls-12" d="M31.24,126a103.88,103.88,0,0,0-.3-18s-1.88,10.25-4.25,18"/><path class="cls-12" d="M18.3,126c-1.22-10.27,2.93-28.25,2.93-28.25S22,116.11,24.32,126"/><path class="cls-12" d="M12.21,126C10.14,116.4,9.8,103,9.8,103s3.48,13.87,6.88,23.07"/><path class="cls-12" d="M16.08,126c-3.06-9.19,0-34,0-34s2.15,25.89,5.09,34"/><path class="cls-12" d="M25.32,126c4-9.55,2.64-39.1,2.64-39.1s-4.23,31.3-7.82,39.1"/><polygon class="cls-7" points="29.29 147.5 14.06 147.5 9.85 126.04 33.5 126.04 29.29 147.5"/><line class="cls-13" x1="16.07" y1="147.5" x2="11.85" y2="126.04"/><polygon class="cls-6" points="29.29 147.5 14.06 147.5 9.85 126.04 33.5 126.04 29.29 147.5"/><line class="cls-5" x1="269" y1="71" x2="269" y2="55"/><path class="cls-4" d="M279.27,77.94a2,2,0,0,1-1.6,3.66L274,80"/><path class="cls-4" d="M276.06,85.27a2,2,0,1,0,1.61-3.67L274,80"/><circle class="cls-4" cx="274" cy="80" r="1"/><path class="cls-4" d="M274.4,101.32a2,2,0,0,1-3.47,2l-2-3.47"/><path class="cls-4" d="M267.47,105.32a2,2,0,1,0,3.46-2l-2-3.47"/><circle class="cls-4" cx="269" cy="100" r="1"/><path class="cls-1" d="M269,99c2.55-2.29,4.36-8,4.36-14.62A27.36,27.36,0,0,0,271,72.48a2.21,2.21,0,0,0-4,0,27.36,27.36,0,0,0-2.38,11.9C264.64,91,266.45,96.71,269,99Z"/><path class="cls-2" d="M267.46,71.7a18.71,18.71,0,0,0-2,5.37,7.61,7.61,0,0,0,7.14,0,18.71,18.71,0,0,0-2-5.37A1.79,1.79,0,0,0,267.46,71.7Z"/><circle class="cls-14" cx="269" cy="75.34" r="0.87"/><circle class="cls-14" cx="269" cy="55" r="2"/><circle class="cls-14" cx="235" cy="40" r="2"/><path class="cls-4" d="M16.4,27.53l.93-11.07L61.8,20.2,57.11,75.83a2.53,2.53,0,0,1-2.73,2.29h-.11"/><line class="cls-15" x1="12.71" y1="71.28" x2="16.11" y2="30.98"/><path class="cls-13" d="M12.86,74.36c-1.81-.16-1.22-3.07-1.22-3.07"/><path class="cls-16" d="M54.27,78.11,11.52,74.25c-1.82-.17-1.22-3.07-1.22-3.07S53.46,73,53.42,73C51.68,76.8,54.27,78.11,54.27,78.11Z"/><path class="cls-1" d="M54.27,78.11,11.52,74.25c-1.82-.17-1.22-3.07-1.22-3.07S53.46,73,53.42,73C51.68,76.8,54.27,78.11,54.27,78.11Z"/><circle class="cls-17" cx="39.36" cy="18.69" r="3.77"/><path class="cls-13" d="M40,22.4A3.77,3.77,0,0,1,40,15"/><circle class="cls-4" cx="39.36" cy="18.69" r="3.77"/><line class="cls-5" x1="255" y1="25" x2="255" y2="14"/><line class="cls-2" x1="255" y1="25" x2="255" y2="57"/><circle class="cls-14" cx="255" cy="13" r="2"/><path class="cls-1" d="M253.65,30a1.58,1.58,0,0,0-1.54,1.17,29.31,29.31,0,0,0-1,7.45,29,29,0,0,0,3.11,13.18.81.81,0,0,0,1.44,0,29,29,0,0,0,3.12-13.18,29.31,29.31,0,0,0-1-7.45A1.59,1.59,0,0,0,256.31,30Z"/><path class="cls-2" d="M251.15,38.62c0,.6,0,1.19,0,1.78h7.57c0-.59.05-1.18.05-1.78,0-1-.06-1.91-.15-2.84H251.3C251.21,36.71,251.15,37.66,251.15,38.62Z"/><line class="cls-4" x1="38.42" y1="32.06" x2="37.27" y2="45.01"/><line class="cls-4" x1="23.91" y1="38.8" x2="34.54" y2="46.28"/><line class="cls-4" x1="22.49" y1="54.74" x2="34.28" y2="49.26"/><line class="cls-4" x1="35.58" y1="63.94" x2="36.73" y2="50.99"/><line class="cls-4" x1="50.09" y1="57.2" x2="39.46" y2="49.72"/><line class="cls-4" x1="51.51" y1="41.26" x2="39.72" y2="46.74"/><path class="cls-2" d="M38,37A11,11,0,1,0,48,49,11,11,0,0,0,38,37ZM36.32,55.67a7.7,7.7,0,1,1,8.35-7A7.7,7.7,0,0,1,36.32,55.67Z"/><circle class="cls-2" cx="37" cy="48" r="3"/><circle class="cls-1" cx="37" cy="48"/><rect class="cls-2" x="40.89" y="28.36" width="32.07" height="37.92" transform="translate(117.45 89.95) rotate(175.43)"/><rect class="cls-3" x="45.54" y="33.99" width="22.55" height="23.74" transform="translate(117.1 87.04) rotate(175.43)"/><circle class="cls-2" cx="56.23" cy="28.76" r="2.72"/><path class="cls-2" d="M55.47,50.8A4.76,4.76,0,0,0,58,52.38l.29-2.81"/><path class="cls-2" d="M57.54,42.52s.37-2.48-.15-2.89-3.52.29-5.12,3"/><path class="cls-2" d="M64.93,45.6A19.41,19.41,0,0,0,65.84,49,8,8,0,0,1,62,45.8a7.93,7.93,0,0,1,3.32-3.67A19.55,19.55,0,0,0,64.93,45.6Z"/><path class="cls-2" d="M47.8,46.81A7.51,7.51,0,0,0,55,50.46a8.52,8.52,0,0,0,7-4.66,8.52,8.52,0,0,0-7.62-3.62A7.5,7.5,0,0,0,47.8,46.81Z"/><path class="cls-2" d="M52.29,50.21a5.8,5.8,0,0,0,1-3.79,5.87,5.87,0,0,0-1.51-3.62"/><ellipse class="cls-14" cx="51.2" cy="46.57" rx="0.6" ry="0.63" transform="translate(-3.15 3.72) rotate(-4.04)"/></svg>