<svg xmlns="http://www.w3.org/2000/svg" xmlns:xlink="http://www.w3.org/1999/xlink" width="96" height="689" viewBox="0 0 96 689"><svg width="7" height="11" viewBox="0 0 7 11" id="arrow" y="0"><title>arrow</title><path d="M.5 10.5l6-5-6-5" stroke="#0467C6" fill="none" fill-rule="evenodd"></path></svg><svg width="8" height="12" viewBox="0 0 8 12" id="arrow-black" y="11"><title>Path</title><path d="M7 0L1 6l6 6" stroke="#333" fill="none" fill-rule="evenodd" stroke-linecap="round" stroke-linejoin="round"></path></svg><svg width="78" height="18" viewBox="0 0 78 18" id="canada" y="23"><title>Canada Logo</title><g fill="#FFF" fill-rule="evenodd"><path d="M15.194.35l.155 5.565h-.295c-.069-.167-.141-.35-.218-.55-.452-1.221-.827-2.05-1.125-2.481C12.585 1.229 11.166.4 9.453.4c-1.867 0-3.397.872-4.59 2.617-1.134 1.644-1.701 3.604-1.701 5.877 0 2.356.524 4.25 1.573 5.68 1.185 1.611 2.876 2.417 5.076 2.417 1.057 0 1.984-.186 2.781-.559.797-.373 1.41-.908 1.835-1.606.393-.631.682-1.446.87-2.447l.296.05c-.232 1.797-.904 3.14-2.017 4.03-1.113.89-2.68 1.334-4.7 1.334-2.792 0-4.992-.823-6.603-2.47C.757 13.788 0 11.752 0 9.22c0-1.357.23-2.63.693-3.821.463-1.192 1.114-2.18 1.953-2.967.839-.794 1.909-1.41 3.21-1.849A10.572 10.572 0 0 1 9.286 0c.856 0 1.734.127 2.633.379.214.057.775.233 1.682.525.206.066.39.098.553.098.3 0 .543-.216.732-.651h.308M27.71 16.186l.218.125c-.312.855-1.021 1.283-2.127 1.283-.701 0-1.259-.176-1.674-.527-.225-.18-.459-.473-.7-.88-.473.4-.834.68-1.082.844-.601.375-1.323.563-2.163.563-.894 0-1.623-.206-2.19-.617-.593-.428-.889-1.029-.889-1.803 0-.756.28-1.373.841-1.85.448-.379 1.18-.691 2.198-.939 1.129-.27 1.923-.535 2.38-.79.362-.197.607-.444.736-.74.112-.256.169-.613.169-1.074 0-.864-.15-1.526-.45-1.987-.361-.551-.902-.827-1.623-.827-.472 0-.862.14-1.171.42-.164.152-.4.56-.708 1.223-.172.375-.486.563-.94.563-.343 0-.61-.118-.798-.353a.936.936 0 0 1-.219-.608c0-.358.21-.658.632-.901.764-.429 1.762-.645 2.991-.645.739 0 1.479.116 2.218.345.876.27 1.457.64 1.741 1.107.198.32.297.878.297 1.673v4.604c0 .755.034 1.269.102 1.541.146.57.497.855 1.054.855.368 0 .668-.106.9-.319.06-.058.145-.153.256-.286zm-4.283-4.903a9.174 9.174 0 0 1-1.513.979c-.679.355-1.123.611-1.335.768-.797.587-1.195 1.33-1.195 2.23 0 .537.144.974.432 1.312.322.381.72.57 1.195.57.585 0 1.098-.222 1.539-.667.585-.584.877-1.622.877-3.113v-2.079zM31.61 6.616c.113.473.17.988.17 1.543 1.06-.987 2.33-1.481 3.81-1.481.965 0 1.769.196 2.41.59.804.482 1.206 1.22 1.206 2.21v4.334c.008.962.02 1.575.039 1.84.067.622.355 1.04.86 1.255.24.1.553.183.938.249v.248h-5.709v-.248c.514-.066.874-.158 1.08-.274.453-.281.71-.795.77-1.54.026-.175.043-.709.052-1.604v-2.643c0-1.378-.115-2.295-.343-2.752-.17-.343-.45-.614-.84-.814-.39-.2-.835-.3-1.335-.3a3.22 3.22 0 0 0-1.47.337c-.445.224-.773.524-.984.9a3.278 3.278 0 0 0-.432 1.482c-.027.384-.039.866-.039 1.446v2.443c.008.945.022 1.55.04 1.815.067.622.359 1.04.873 1.255.23.1.54.183.925.249v.248h-5.709v-.248c.513-.066.874-.158 1.08-.274.453-.281.71-.795.77-1.54.026-.183.043-.721.052-1.617v-3.081c-.01-.994-.03-1.591-.064-1.79-.138-.994-.703-1.508-1.697-1.541v-.249l3.547-.448M52.645 16.186l.218.125c-.311.855-1.02 1.283-2.127 1.283-.7 0-1.259-.176-1.674-.527-.225-.18-.459-.473-.7-.88-.473.4-.833.68-1.082.844-.601.375-1.323.563-2.163.563-.894 0-1.624-.206-2.19-.617-.593-.428-.889-1.029-.889-1.803 0-.756.28-1.373.84-1.85.449-.379 1.182-.691 2.199-.939 1.129-.27 1.922-.535 2.38-.79.361-.197.607-.444.736-.74.112-.256.169-.613.169-1.074 0-.864-.15-1.526-.45-1.987-.362-.551-.902-.827-1.623-.827-.472 0-.862.14-1.171.42-.164.152-.4.56-.709 1.223-.171.375-.484.563-.94.563-.343 0-.609-.118-.798-.353a.939.939 0 0 1-.218-.608c0-.358.21-.658.631-.901.765-.429 1.763-.645 2.992-.645.74 0 1.478.116 2.218.345.876.27 1.457.64 1.741 1.107.198.32.297.878.297 1.673v4.604c0 .755.034 1.269.103 1.541.145.57.496.855 1.053.855.368 0 .668-.106.9-.319.06-.058.145-.153.257-.286zm-4.283-4.903c-.44.356-.945.682-1.513.979-.679.355-1.123.611-1.335.768-.797.587-1.195 1.33-1.195 2.23 0 .537.144.974.433 1.312.32.381.72.57 1.194.57.585 0 1.098-.222 1.539-.667.585-.584.877-1.622.877-3.113v-2.079zM62.216 17.799a5.208 5.208 0 0 1-.132-1.293c-1.18.731-2.378 1.096-3.59 1.096-1.464 0-2.674-.462-3.632-1.386-1.026-.99-1.538-2.293-1.538-3.91 0-1.708.542-3.093 1.628-4.158 1.01-.982 2.275-1.473 3.797-1.473.897 0 1.696.206 2.398.616.23.13.525.336.885.617V3.343c0-1.102-.249-1.847-.745-2.237-.292-.198-.708-.302-1.247-.31V.484L64.001 0v14.382c.008.755.09 1.289.244 1.604.223.506.578.816 1.067.932.18.032.407.054.68.062v.31l-3.776.509zM59.174 6.976c-.974 0-1.804.496-2.49 1.486-.72 1.032-1.08 2.245-1.08 3.64 0 1.336.33 2.524.99 3.564.653 1.024 1.495 1.535 2.529 1.535a2.6 2.6 0 0 0 1.403-.408c.436-.272.76-.636.972-1.09.245-.495.394-1.03.445-1.609.059-.593.089-1.258.089-1.993 0-1.353-.055-2.285-.166-2.798-.186-.85-.563-1.468-1.13-1.857a2.737 2.737 0 0 0-1.562-.47zM77.67 16.186l.218.125c-.312.855-1.021 1.283-2.127 1.283-.701 0-1.259-.176-1.673-.527-.226-.18-.46-.473-.701-.88-.473.4-.834.68-1.082.844-.601.375-1.323.563-2.164.563-.893 0-1.622-.206-2.19-.617-.592-.428-.888-1.029-.888-1.803 0-.756.28-1.373.84-1.85.448-.379 1.182-.691 2.199-.939 1.129-.27 1.923-.535 2.38-.79.361-.197.607-.444.737-.74.111-.256.168-.613.168-1.074 0-.864-.15-1.526-.45-1.987-.362-.551-.902-.827-1.623-.827-.472 0-.862.14-1.172.42-.163.152-.399.56-.707 1.223-.172.375-.486.563-.94.563-.343 0-.61-.118-.799-.353a.936.936 0 0 1-.218-.608c0-.358.21-.658.632-.901.764-.429 1.762-.645 2.991-.645.739 0 1.478.116 2.218.345.876.27 1.457.64 1.74 1.107.199.32.297.878.297 1.673v4.604c0 .755.035 1.269.103 1.541.146.57.497.855 1.054.855.368 0 .668-.106.9-.319.06-.058.145-.153.256-.286zm-4.283-4.903c-.44.356-.945.682-1.513.979-.679.355-1.124.611-1.335.768-.797.587-1.195 1.33-1.195 2.23 0 .537.144.974.432 1.312.322.381.72.57 1.195.57.585 0 1.098-.222 1.539-.667.584-.584.877-1.622.877-3.113v-2.079zM65.556 5.417h2.67V.003h-2.67zM74.673 5.417h2.662V.003h-2.662zM71.42 5.18h-.225V4.14l-1.207.108.225-.416-1.31-.929.348-.188-.338-.89.717.169.265-.357.912.88-.482-1.692.573.316.522-.91.522.91.583-.316-.492 1.692.92-.88.268.357.706-.168-.338.889.359.188-1.321.93.235.415-1.208-.108v1.04h-.234"></path></g></svg><svg width="24" height="24" viewBox="0 0 24 24" id="checkbox" y="41"><title>Artboard</title><g fill="none" fill-rule="evenodd"><path d="M0 0h24v24H0z"></path><g transform="translate(0 1)" stroke="#0067CC" stroke-linecap="round" stroke-linejoin="round" stroke-width="2"><path d="M22.677 9.339v12.338H1V0h14.093"></path><path d="M7.109 9.554l4.729 4.299L23.084.359"></path></g></g></svg><svg width="10" height="6" viewBox="0 0 10 6" id="chevron" y="65"><title>chevron-black</title><path d="M.99.497a.336.336 0 0 0-.501 0 .408.408 0 0 0 0 .544l4.26 4.616c.139.15.363.15.502 0l4.26-4.616a.408.408 0 0 0 0-.544.336.336 0 0 0-.502 0L5 4.841.99.497z" fill="#333" fill-rule="evenodd"></path></svg><svg width="10" height="6" viewBox="0 0 10 6" id="chevron-hover" y="71"><title>chevron-black</title><path d="M.99.497a.336.336 0 0 0-.501 0 .408.408 0 0 0 0 .544l4.26 4.616c.139.15.363.15.502 0l4.26-4.616a.408.408 0 0 0 0-.544.336.336 0 0 0-.502 0L5 4.841.99.497z" fill="#0467C6" fill-rule="evenodd"></path></svg><svg width="18" height="12" viewBox="0 0 18 12" id="clear" y="77"><g fill="none" fill-rule="evenodd"><path fill="#666" d="M5.493 0H18v11.868H5.493L.67 5.934z"></path><g transform="translate(8.24 3.429)" stroke="#FFF" stroke-width="1.5" stroke-linecap="round" stroke-linejoin="round"><path d="M.136.514l4.61 4.457M4.745.514L.135 4.971"></path></g></g></svg><svg width="16" height="16" viewBox="0 0 16 16" id="close" y="89"><title>Close button - grey</title><g stroke="#333" fill="none" fill-rule="evenodd" stroke-linecap="round" stroke-linejoin="round"><path d="M.533.533l14.509 14.509M15.467.533L.958 15.042"></path></g></svg><svg width="17" height="20" viewBox="0 0 17.28 19.52" id="download" y="105"><svg width="17" height="20" viewBox="0 0 17.28 19.52"><title>download</title><g fill="#666" fill-rule="evenodd"><path d="M14.09 7.57H10.8V0H6.48v7.57H3.19l5.45 5.52 5.45-5.52zM14.26 14.47l-.22 2H3.24l-.22-2H0l.4 3.7a1.5 1.5 0 0 0 1.49 1.35h13.5a1.5 1.5 0 0 0 1.49-1.35l.4-3.7z"></path></g></svg></svg><svg width="17" height="20" viewBox="0 0 17.28 19.52" id="download-hover" y="125"><svg width="17" height="20" viewBox="0 0 17.28 19.52"><title>download-hover</title><g fill="#2968B2" fill-rule="evenodd"><path d="M14.09 7.57H10.8V0H6.48v7.57H3.19l5.45 5.52 5.45-5.52zM14.26 14.47l-.22 2H3.24l-.22-2H0l.4 3.7a1.5 1.5 0 0 0 1.49 1.35h13.5a1.5 1.5 0 0 0 1.49-1.35l.4-3.7z"></path></g></svg></svg><svg width="24" height="15" viewBox="0 0 24 15" id="email" y="145"><title>email</title><g fill="#676767" fill-rule="evenodd"><path d="M.64 2l10.15 7.31a1.37 1.37 0 0 0 1.57 0L22.51 2a1.54 1.54 0 0 0 .64-1.22V0H0v.8c.013.478.25.923.64 1.2zM.13 2.91A1.42 1.42 0 0 0 0 2.79v11.09l6.73-6.26-6.6-4.71zM23 2.89l-6.6 4.73 6.73 6.26V2.77z"></path><path d="M15.59 8.22l-2.66 1.9a2.31 2.31 0 0 1-2.71 0l-2.66-1.9-6.82 6.34h21.67l-6.82-6.34z"></path></g></svg><svg width="24" height="15" viewBox="0 0 24 15" id="email-hover" y="160"><title>email-hover</title><g fill="#2968B2" fill-rule="evenodd"><path d="M.64 2l10.15 7.31a1.37 1.37 0 0 0 1.57 0L22.51 2a1.54 1.54 0 0 0 .64-1.22V0H0v.8c.013.478.25.923.64 1.2zM.13 2.91A1.42 1.42 0 0 0 0 2.79v11.09l6.73-6.26-6.6-4.71zM23 2.89l-6.6 4.73 6.73 6.26V2.77z"></path><path d="M15.59 8.22l-2.66 1.9a2.31 2.31 0 0 1-2.71 0l-2.66-1.9-6.82 6.34h21.67l-6.82-6.34z"></path></g></svg><svg width="10" height="20" viewBox="0 0 10 20" id="facebook" y="175"><title>facebook-logo</title><g transform="translate(-14 -4)" fill="none" fill-rule="evenodd"><path d="M0 0h24v24H0z"></path><path d="M20.222 10.546V8.825c0-.258.012-.459.036-.6.024-.142.079-.28.164-.418a.669.669 0 0 1 .412-.285c.19-.053.442-.08.758-.08h1.721V4h-2.752c-1.592 0-2.736.378-3.431 1.133-.695.756-1.042 1.87-1.042 3.34v2.073h-2.062v3.444h2.061v9.99h4.135v-9.99h2.751l.364-3.444h-3.115z" fill="#666" fill-rule="nonzero"></path></g></svg><svg width="10" height="20" viewBox="0 0 10 20" id="facebook-hover" y="195"><title>facebook-logo copy</title><g transform="translate(-14 -4)" fill="none" fill-rule="evenodd"><path d="M0 0h24v24H0z"></path><path d="M20.222 10.546V8.825c0-.258.012-.459.036-.6.024-.142.079-.28.164-.418a.669.669 0 0 1 .412-.285c.19-.053.442-.08.758-.08h1.721V4h-2.752c-1.592 0-2.736.378-3.431 1.133-.695.756-1.042 1.87-1.042 3.34v2.073h-2.062v3.444h2.061v9.99h4.135v-9.99h2.751l.364-3.444h-3.115z" fill="#0467C6" fill-rule="nonzero"></path></g></svg><svg width="24" height="24" viewBox="0 0 24 24" id="hamburger" y="215"><title>Hamburger icon</title><g fill="none" fill-rule="evenodd"><path d="M0 0h24v24H0z"></path><g transform="translate(2 5)" fill="#333"><g transform="translate(1)"><path d="M0 0h18v1H0zM0 7h18v1H0zM0 14h18v1H0z"></path></g><path d="M.5 0H1v1H.5a.5.5 0 1 1 0-1zM19.5 0H19v1h.5a.5.5 0 1 0 0-1zM.5 7H1v1H.5a.5.5 0 0 1 0-1zM19.5 7H19v1h.5a.5.5 0 1 0 0-1zM.5 14H1v1H.5a.5.5 0 1 1 0-1zM19.5 14H19v1h.5a.5.5 0 1 0 0-1z"></path></g></g></svg><svg width="28" height="28" viewBox="0 0 28 28" id="infographics" y="239"><title>Infographics</title><g transform="translate(1 1)" fill="none" fill-rule="evenodd"><path stroke="#0067CD" stroke-width="2" stroke-linecap="round" stroke-linejoin="round" d="M5 19l6-8 7 3 6-8"></path><path d="M26 6a2 2 0 1 1-4.001-.001A2 2 0 0 1 26 6" fill="#FFF"></path><path d="M26 6a2 2 0 1 1-4.001-.001A2 2 0 0 1 26 6z" stroke="#0067CD" stroke-width="2" stroke-linecap="round" stroke-linejoin="round"></path><path d="M20 14a2 2 0 1 1-4.001-.001A2 2 0 0 1 20 14" fill="#FFF"></path><path d="M20 14a2 2 0 1 1-4.001-.001A2 2 0 0 1 20 14z" stroke="#0067CD" stroke-width="2" stroke-linecap="round" stroke-linejoin="round"></path><path d="M13 11a2 2 0 1 1-4.001-.001A2 2 0 0 1 13 11" fill="#FFF"></path><path d="M13 11a2 2 0 1 1-4.001-.001A2 2 0 0 1 13 11z" stroke="#0067CD" stroke-width="2" stroke-linecap="round" stroke-linejoin="round"></path><path d="M7 19a2 2 0 1 1-4.001-.001A2 2 0 0 1 7 19" fill="#FFF"></path><path d="M7 19a2 2 0 1 1-4.001-.001A2 2 0 0 1 7 19z" stroke="#0067CD" stroke-width="2" stroke-linecap="round" stroke-linejoin="round"></path><path stroke="#0067CD" stroke-width="2" stroke-linecap="round" stroke-linejoin="round" d="M0 0v26h26"></path></g></svg><svg width="16" height="16" viewBox="0 0 16 16" id="language" y="267"><title>Language</title><path d="M13.4 1.5H2.6A2.1 2.1 0 0 0 .5 3.6v6.8c0 1.16.94 2.1 2.1 2.1h.9v2.23a.32.32 0 0 0 .55.22L6.5 12.5h6.9a2.1 2.1 0 0 0 2.1-2.1V3.6a2.1 2.1 0 0 0-2.1-2.1z" stroke="#000" fill="none" fill-rule="evenodd" stroke-linecap="round" stroke-linejoin="round"></path></svg><svg width="21" height="20" viewBox="0 0 21 20" id="linkedin" y="283"><title>linkedin-logo copy 2</title><g transform="translate(-3 -4)" fill="none" fill-rule="evenodd"><path d="M0 0h24v24H0z"></path><path d="M23.553 16.232v7.72h-4.405v-7.203c0-1.809-.637-3.044-2.232-3.044-1.217 0-1.941.832-2.26 1.637-.116.288-.146.689-.146 1.091v7.519h-4.407s.06-12.199 0-13.463h4.406v1.909c-.008.014-.02.03-.029.043h.03v-.043c.585-.916 1.63-2.225 3.97-2.225 2.9 0 5.073 1.924 5.073 6.06zM5.493 4C3.987 4 3 5.005 3 6.325c0 1.293.958 2.328 2.435 2.328h.03c1.536 0 2.492-1.035 2.492-2.328C7.928 5.005 7 4 5.494 4zM3.263 23.952h4.405V10.489H3.262v13.463z" fill="#666" fill-rule="nonzero"></path></g></svg><svg width="21" height="20" viewBox="0 0 21 20" id="linkedin-hover" y="303"><title>linkedin-logo copy</title><g transform="translate(-3 -4)" fill="none" fill-rule="evenodd"><path d="M0 0h24v24H0z"></path><path d="M23.553 16.232v7.72h-4.405v-7.203c0-1.809-.637-3.044-2.232-3.044-1.217 0-1.941.832-2.26 1.637-.116.288-.146.689-.146 1.091v7.519h-4.407s.06-12.199 0-13.463h4.406v1.909c-.008.014-.02.03-.029.043h.03v-.043c.585-.916 1.63-2.225 3.97-2.225 2.9 0 5.073 1.924 5.073 6.06zM5.493 4C3.987 4 3 5.005 3 6.325c0 1.293.958 2.328 2.435 2.328h.03c1.536 0 2.492-1.035 2.492-2.328C7.928 5.005 7 4 5.494 4zM3.263 23.952h4.405V10.489H3.262v13.463z" fill="#0467C6" fill-rule="nonzero"></path></g></svg><svg width="14" height="14" viewBox="0 0 14 14" id="open-in-new-window" y="323"><title>open-in-new-window</title><g stroke="#FFF" fill="none" fill-rule="evenodd"><path d="M9.43.5h4.07v4.07M13.5.5L7 7M13.5 7.38v6.12H.5V.5h6.12"></path></g></svg><svg width="96" height="65" viewBox="0 0 96 65" id="quote-en" y="337"><title>Quotation</title><g transform="translate(0 -1)" fill="#E5EFF9" fill-rule="evenodd"><path d="M24.391 20.741h.29c-2.78 0-2.658-1.539-2.478-2.793.165-1.154.357-2.18.578-3.126 1.95-6.159 8.24-10.043 11.704-11.768.994-.449 2.052-.917 3.212-1.429a.444.444 0 0 0 .254-.365.306.306 0 0 0-.368-.252C3.171 9.43.11 33.016.01 40.348c0 0-.019 1.34-.003 2.206 0 12.965 11.062 24.11 24.202 23.291 11.141-.694 20.257-9.68 21.094-20.812.957-12.719-8.619-23.416-20.91-24.292M74.921 20.741h.291c-2.78 0-2.657-1.539-2.478-2.793.166-1.154.358-2.18.579-3.126C75.26 8.663 81.552 4.78 85.016 3.054c.994-.449 2.051-.917 3.212-1.429a.443.443 0 0 0 .255-.365.306.306 0 0 0-.37-.252c-34.41 8.421-37.472 32.008-37.572 39.34 0 0-.02 1.34-.003 2.206 0 12.965 11.062 24.11 24.202 23.291 11.14-.694 20.257-9.68 21.094-20.812.956-12.719-8.62-23.416-20.913-24.292"></path></g></svg><svg id="quote-fr" viewBox="0 0 68.5 65" width="68.5" height="65" y="402"><style>.st0{fill:#e6eff8}</style><path class="st0" d="M18.2 32.5L37 63.6H22.4L.6 33.2v-1.5L22.4 1.2H37L18.2 32.5zm30.1 0L67 63.7H52.5L30.6 33.2v-1.5L52.5 1.2H67L48.3 32.5z"></path></svg><svg width="28" height="28" viewBox="0 0 28 28" id="reports" y="467"><title>Reports</title><g transform="translate(4 1)" stroke="#0067CD" stroke-width="2" fill="none" fill-rule="evenodd" stroke-linecap="round" stroke-linejoin="round"><path d="M14 26H0V0h20v20"></path><path d="M14 20h6l-6 6zM6 8l2.4-2.4 2.4 1.6L14 4M5 16h10M5 12h10M5 20h5"></path></g></svg><svg width="20" height="20" viewBox="0 0 20 20" id="search" y="495"><title>Search_icon_global</title><g transform="translate(2 2)" stroke="#666" fill="none" fill-rule="evenodd" stroke-linecap="round" stroke-linejoin="round"><circle cx="6" cy="6" r="6"></circle><path d="M10.5 10.5l6 6"></path></g></svg><svg width="18" height="18" viewBox="0 0 18 18" id="search-active" y="515"><title>search-hover</title><g transform="translate(1 1)" stroke="#0467C6" fill="none" fill-rule="evenodd"><circle cx="5.667" cy="5.667" r="5.667"></circle><path d="M9.926 9.926l6.537 6.537"></path></g></svg><svg width="20" height="20" viewBox="0 0 20 20" id="social-share" y="533"><title>social-share</title><g transform="translate(1 1)" stroke="#666667" stroke-width="2" fill="none" fill-rule="evenodd"><path d="M3.99 7.52l9.08-4.68M13.26 14.63L4.05 9.89"></path><circle cx="2.17" cy="8.69" r="2.17"></circle><circle cx="15.25" cy="2.17" r="2.17"></circle><circle cx="15.25" cy="15.25" r="2.17"></circle></g></svg><svg width="16" height="16" viewBox="0 0 16 16" id="social-share-hover" y="553"><svg width="16" height="16" viewBox="0 0 16 16"><title>Close button - grey</title><path d="M.533.533l14.509 14.509M15.467.533L.958 15.042" stroke="#333" fill="none" fill-rule="evenodd" stroke-linecap="round" stroke-linejoin="round"></path></svg></svg><svg width="16" height="16" viewBox="0 0 16 16" id="ticket" y="569"><title>Ticket</title><g fill="#FFF" fill-rule="nonzero" stroke="#000" stroke-linecap="round" stroke-linejoin="round"><path d="M11.32 4.48a1.6 1.6 0 0 1 0-2.27L9.61.5.5 9.61l1.71 1.71a1.61 1.61 0 1 1 2.27 2.27l1.71 1.71 9.11-9.11-1.71-1.71a1.6 1.6 0 0 1-2.27 0zM7.9 4.9l3 3"></path></g></svg><svg width="14" height="14" viewBox="0 0 14 14" id="time" y="585"><title>time</title><g transform="translate(-1 -1)" fill="none" fill-rule="evenodd"><path d="M0 0h16v16H0z"></path><circle cx="7" cy="7" r="6.5" transform="translate(1 1)" stroke="#333"></circle><path d="M8 4.3V8l3.5 2.5" stroke="#333"></path></g></svg><svg width="21" height="17" viewBox="0 0 21 17" id="twitter" y="599"><title>twitter-logo-silhouette</title><g transform="translate(-3 -7)" fill="none" fill-rule="evenodd"><path d="M0 0h24v24H0z"></path><path d="M23.925 9.023c-.77.34-1.597.572-2.465.675a4.305 4.305 0 0 0 1.887-2.37c-.832.491-1.75.848-2.728 1.04a4.284 4.284 0 0 0-3.133-1.353 4.29 4.29 0 0 0-4.181 5.261 12.193 12.193 0 0 1-8.847-4.478 4.248 4.248 0 0 0-.58 2.154c0 1.487.758 2.8 1.908 3.567a4.298 4.298 0 0 1-1.944-.538v.054a4.292 4.292 0 0 0 3.443 4.202c-.36.097-.739.15-1.131.15-.277 0-.545-.027-.808-.08a4.294 4.294 0 0 0 4.009 2.977 8.621 8.621 0 0 1-5.331 1.832c-.347 0-.688-.021-1.024-.06a12.147 12.147 0 0 0 6.58 1.929c7.896 0 12.212-6.53 12.212-12.193l-.014-.555a8.564 8.564 0 0 0 2.147-2.214z" fill="#666" fill-rule="nonzero"></path></g></svg><svg width="21" height="17" viewBox="0 0 21 17" id="twitter-hover" y="616"><title>twitter-logo-silhouette copy</title><g transform="translate(-3 -7)" fill="none" fill-rule="evenodd"><path d="M0 0h24v24H0z"></path><path d="M23.925 9.023c-.77.34-1.597.572-2.465.675a4.305 4.305 0 0 0 1.887-2.37c-.832.491-1.75.848-2.728 1.04a4.284 4.284 0 0 0-3.133-1.353 4.29 4.29 0 0 0-4.181 5.261 12.193 12.193 0 0 1-8.847-4.478 4.248 4.248 0 0 0-.58 2.154c0 1.487.758 2.8 1.908 3.567a4.298 4.298 0 0 1-1.944-.538v.054a4.292 4.292 0 0 0 3.443 4.202c-.36.097-.739.15-1.131.15-.277 0-.545-.027-.808-.08a4.294 4.294 0 0 0 4.009 2.977 8.621 8.621 0 0 1-5.331 1.832c-.347 0-.688-.021-1.024-.06a12.147 12.147 0 0 0 6.58 1.929c7.896 0 12.212-6.53 12.212-12.193l-.014-.555a8.564 8.564 0 0 0 2.147-2.214z" fill="#0467C6" fill-rule="nonzero"></path></g></svg><svg width="28" height="28" viewBox="0 0 28 28" id="videos" y="633"><title>Videos</title><g transform="translate(1 5)" stroke="#0067CD" stroke-width="2" fill="none" fill-rule="evenodd" stroke-linecap="round" stroke-linejoin="round"><path d="M19.226 0H1.774C.794 0 0 .794 0 1.774v14.452C0 17.206.794 18 1.774 18h17.452c.98 0 1.774-.794 1.774-1.774V1.774C21 .794 20.206 0 19.226 0z"></path><path d="M26 13l-5-1.6V6.6L26 5zM13.334 9l-5-2.887v5.774z"></path></g></svg><svg width="28" height="28" viewBox="0 0 28 28" id="webinars" y="661"><title>Webinars</title><g transform="translate(1 1)" fill="none" fill-rule="evenodd"><path d="M24.502 26H1.498A1.498 1.498 0 0 1 0 24.502V1.498C0 .671.67 0 1.498 0h23.004C25.33 0 26 .671 26 1.498v23.004c0 .827-.67 1.498-1.498 1.498zM0 6h26" stroke="#0067CD" stroke-width="2" stroke-linecap="round" stroke-linejoin="round"></path><path d="M10 14a2 2 0 1 1-4.001-.001A2 2 0 0 1 10 14zM4 22a4 4 0 0 1 8 0H4zM23 13a4 4 0 0 1-4 4h-6c2-1 2-2.804 2-4a4 4 0 0 1 8 0z" stroke="#0067CD" stroke-width="2" stroke-linecap="round" stroke-linejoin="round"></path><path d="M4 3a1 1 0 1 1-2 0 1 1 0 0 1 2 0M7 3a1 1 0 1 1-2 0 1 1 0 0 1 2 0M10 3a1 1 0 1 1-2 0 1 1 0 0 1 2 0" fill="#0067CD"></path></g></svg></svg>